<mxfile host="app.diagrams.net" agent="Mozilla/5.0 (Windows NT 10.0; Win64; x64; rv:133.0) Gecko/20100101 Firefox/133.0" version="25.0.3" pages="7">
  <diagram id="2Utbh4lTheztEIpKIFNh" name="Страница — 2">
    <mxGraphModel dx="658" dy="795" grid="1" gridSize="10" guides="1" tooltips="1" connect="1" arrows="1" fold="1" page="1" pageScale="1" pageWidth="827" pageHeight="1169" math="0" shadow="0">
      <root>
        <mxCell id="0" />
        <mxCell id="1" parent="0" />
        <mxCell id="cNBva-AZgirPr0EvjZa0-1" style="edgeStyle=orthogonalEdgeStyle;rounded=0;orthogonalLoop=1;jettySize=auto;html=1;entryX=0.5;entryY=0;entryDx=0;entryDy=0;" parent="1" edge="1">
          <mxGeometry relative="1" as="geometry">
            <mxPoint x="360.0000000000001" y="200" as="targetPoint" />
            <mxPoint x="360.0000000000001" y="100" as="sourcePoint" />
          </mxGeometry>
        </mxCell>
        <mxCell id="cNBva-AZgirPr0EvjZa0-2" value="НАЧАЛО" style="ellipse;whiteSpace=wrap;html=1;" parent="1" vertex="1">
          <mxGeometry x="300" y="20" width="120" height="80" as="geometry" />
        </mxCell>
        <mxCell id="cNBva-AZgirPr0EvjZa0-3" value="" style="endArrow=none;dashed=1;html=1;rounded=0;" parent="1" target="cNBva-AZgirPr0EvjZa0-4" edge="1">
          <mxGeometry width="50" height="50" relative="1" as="geometry">
            <mxPoint x="360" y="140" as="sourcePoint" />
            <mxPoint x="520" y="140" as="targetPoint" />
          </mxGeometry>
        </mxCell>
        <mxCell id="cNBva-AZgirPr0EvjZa0-4" value="" style="shape=curlyBracket;whiteSpace=wrap;html=1;rounded=1;labelPosition=left;verticalLabelPosition=middle;align=right;verticalAlign=middle;" parent="1" vertex="1">
          <mxGeometry x="500" y="80" width="110" height="120" as="geometry" />
        </mxCell>
        <mxCell id="cNBva-AZgirPr0EvjZa0-5" value="&lt;div align=&quot;left&quot;&gt;#include &amp;lt;iostream&amp;gt;&lt;br&gt;using namespace std;&lt;br&gt;int main()&lt;br&gt;&lt;/div&gt;&lt;div align=&quot;left&quot;&gt;{&lt;/div&gt;" style="text;html=1;align=left;verticalAlign=middle;whiteSpace=wrap;rounded=0;" parent="1" vertex="1">
          <mxGeometry x="570" y="90" width="150" height="100" as="geometry" />
        </mxCell>
        <mxCell id="cNBva-AZgirPr0EvjZa0-8" style="edgeStyle=none;curved=1;rounded=0;orthogonalLoop=1;jettySize=auto;html=1;entryX=0.5;entryY=0;entryDx=0;entryDy=0;fontSize=12;startSize=8;endSize=8;" parent="1" source="cNBva-AZgirPr0EvjZa0-6" target="cNBva-AZgirPr0EvjZa0-7" edge="1">
          <mxGeometry relative="1" as="geometry" />
        </mxCell>
        <mxCell id="cNBva-AZgirPr0EvjZa0-6" value="int n, d;" style="rounded=0;whiteSpace=wrap;html=1;" parent="1" vertex="1">
          <mxGeometry x="300" y="200" width="120" height="60" as="geometry" />
        </mxCell>
        <mxCell id="cNBva-AZgirPr0EvjZa0-9" style="edgeStyle=none;curved=1;rounded=0;orthogonalLoop=1;jettySize=auto;html=1;fontSize=12;startSize=8;endSize=8;" parent="1" source="cNBva-AZgirPr0EvjZa0-7" target="cNBva-AZgirPr0EvjZa0-10" edge="1">
          <mxGeometry relative="1" as="geometry">
            <mxPoint x="360" y="400" as="targetPoint" />
          </mxGeometry>
        </mxCell>
        <mxCell id="cNBva-AZgirPr0EvjZa0-7" value="cin &gt;&gt; n;" style="shape=parallelogram;perimeter=parallelogramPerimeter;whiteSpace=wrap;html=1;fixedSize=1;" parent="1" vertex="1">
          <mxGeometry x="300" y="300" width="120" height="60" as="geometry" />
        </mxCell>
        <mxCell id="Hr2sJo4y9AS4UTB7AzaS-2" style="edgeStyle=none;curved=1;rounded=0;orthogonalLoop=1;jettySize=auto;html=1;fontSize=12;startSize=8;endSize=8;" parent="1" source="cNBva-AZgirPr0EvjZa0-10" target="Hr2sJo4y9AS4UTB7AzaS-1" edge="1">
          <mxGeometry relative="1" as="geometry" />
        </mxCell>
        <mxCell id="cNBva-AZgirPr0EvjZa0-10" value="d = n / 2;" style="rounded=0;whiteSpace=wrap;html=1;" parent="1" vertex="1">
          <mxGeometry x="300" y="400" width="120" height="60" as="geometry" />
        </mxCell>
        <mxCell id="Hr2sJo4y9AS4UTB7AzaS-4" value="" style="edgeStyle=none;curved=1;rounded=0;orthogonalLoop=1;jettySize=auto;html=1;fontSize=12;startSize=8;endSize=8;" parent="1" source="Hr2sJo4y9AS4UTB7AzaS-1" edge="1">
          <mxGeometry relative="1" as="geometry">
            <mxPoint x="360" y="620" as="targetPoint" />
          </mxGeometry>
        </mxCell>
        <mxCell id="Hr2sJo4y9AS4UTB7AzaS-6" style="edgeStyle=none;curved=0;rounded=0;orthogonalLoop=1;jettySize=auto;html=1;fontSize=12;startSize=8;endSize=8;exitX=1;exitY=0.5;exitDx=0;exitDy=0;" parent="1" source="Hr2sJo4y9AS4UTB7AzaS-1" edge="1">
          <mxGeometry relative="1" as="geometry">
            <mxPoint x="360" y="800" as="targetPoint" />
            <Array as="points">
              <mxPoint x="480" y="540" />
              <mxPoint x="480" y="760" />
              <mxPoint x="360" y="760" />
            </Array>
          </mxGeometry>
        </mxCell>
        <mxCell id="Hr2sJo4y9AS4UTB7AzaS-1" value="for (int i = 0; i &amp;lt; n; i++)" style="shape=hexagon;perimeter=hexagonPerimeter2;whiteSpace=wrap;html=1;fixedSize=1;" parent="1" vertex="1">
          <mxGeometry x="280" y="500" width="160" height="80" as="geometry" />
        </mxCell>
        <mxCell id="Hr2sJo4y9AS4UTB7AzaS-5" style="edgeStyle=none;curved=0;rounded=0;orthogonalLoop=1;jettySize=auto;html=1;entryX=0;entryY=0.5;entryDx=0;entryDy=0;fontSize=12;startSize=8;endSize=8;exitX=0.5;exitY=1;exitDx=0;exitDy=0;" parent="1" target="Hr2sJo4y9AS4UTB7AzaS-1" edge="1">
          <mxGeometry relative="1" as="geometry">
            <mxPoint x="360" y="680" as="sourcePoint" />
            <Array as="points">
              <mxPoint x="360" y="720" />
              <mxPoint x="240" y="720" />
              <mxPoint x="240" y="540" />
            </Array>
          </mxGeometry>
        </mxCell>
        <mxCell id="Hr2sJo4y9AS4UTB7AzaS-7" value="&#xa;cout &amp;lt;&amp;lt; &quot;* &quot;;&#xa;&#xa;" style="shape=parallelogram;perimeter=parallelogramPerimeter;whiteSpace=wrap;html=1;fixedSize=1;" parent="1" vertex="1">
          <mxGeometry x="300" y="620" width="120" height="60" as="geometry" />
        </mxCell>
        <mxCell id="Hr2sJo4y9AS4UTB7AzaS-9" style="edgeStyle=none;curved=1;rounded=0;orthogonalLoop=1;jettySize=auto;html=1;fontSize=12;startSize=8;endSize=8;" parent="1" source="Hr2sJo4y9AS4UTB7AzaS-8" edge="1">
          <mxGeometry relative="1" as="geometry">
            <mxPoint x="360" y="900" as="targetPoint" />
          </mxGeometry>
        </mxCell>
        <mxCell id="Hr2sJo4y9AS4UTB7AzaS-8" value="cout &lt;&lt; endl;" style="shape=parallelogram;perimeter=parallelogramPerimeter;whiteSpace=wrap;html=1;fixedSize=1;" parent="1" vertex="1">
          <mxGeometry x="300" y="800" width="120" height="60" as="geometry" />
        </mxCell>
        <mxCell id="Hr2sJo4y9AS4UTB7AzaS-10" value="" style="edgeStyle=none;curved=1;rounded=0;orthogonalLoop=1;jettySize=auto;html=1;fontSize=12;startSize=8;endSize=8;" parent="1" source="Hr2sJo4y9AS4UTB7AzaS-12" edge="1">
          <mxGeometry relative="1" as="geometry">
            <mxPoint x="360" y="1020" as="targetPoint" />
          </mxGeometry>
        </mxCell>
        <mxCell id="Hr2sJo4y9AS4UTB7AzaS-41" style="edgeStyle=none;curved=0;rounded=0;orthogonalLoop=1;jettySize=auto;html=1;fontSize=12;startSize=8;endSize=8;exitX=1;exitY=0.5;exitDx=0;exitDy=0;" parent="1" source="Hr2sJo4y9AS4UTB7AzaS-12" edge="1">
          <mxGeometry relative="1" as="geometry">
            <mxPoint x="360" y="2320" as="targetPoint" />
            <Array as="points">
              <mxPoint x="520" y="940" />
              <mxPoint x="520" y="2280" />
              <mxPoint x="360" y="2280" />
            </Array>
          </mxGeometry>
        </mxCell>
        <mxCell id="Hr2sJo4y9AS4UTB7AzaS-12" value="for (int i = 0; i &amp;lt; d - 1; i++)" style="shape=hexagon;perimeter=hexagonPerimeter2;whiteSpace=wrap;html=1;fixedSize=1;" parent="1" vertex="1">
          <mxGeometry x="280" y="900" width="160" height="80" as="geometry" />
        </mxCell>
        <mxCell id="Hr2sJo4y9AS4UTB7AzaS-22" style="edgeStyle=none;curved=1;rounded=0;orthogonalLoop=1;jettySize=auto;html=1;entryX=0.5;entryY=0;entryDx=0;entryDy=0;fontSize=12;startSize=8;endSize=8;" parent="1" source="Hr2sJo4y9AS4UTB7AzaS-17" target="Hr2sJo4y9AS4UTB7AzaS-21" edge="1">
          <mxGeometry relative="1" as="geometry" />
        </mxCell>
        <mxCell id="Hr2sJo4y9AS4UTB7AzaS-24" style="edgeStyle=none;curved=0;rounded=0;orthogonalLoop=1;jettySize=auto;html=1;fontSize=12;startSize=8;endSize=8;exitX=1;exitY=0.5;exitDx=0;exitDy=0;strokeColor=default;" parent="1" source="Hr2sJo4y9AS4UTB7AzaS-17" edge="1">
          <mxGeometry relative="1" as="geometry">
            <mxPoint x="360" y="1320" as="targetPoint" />
            <Array as="points">
              <mxPoint x="480" y="1060" />
              <mxPoint x="480" y="1280" />
              <mxPoint x="360" y="1280" />
            </Array>
          </mxGeometry>
        </mxCell>
        <mxCell id="Hr2sJo4y9AS4UTB7AzaS-17" value="&amp;nbsp;for (int j = 1; j &amp;lt; d - i; j++)" style="shape=hexagon;perimeter=hexagonPerimeter2;whiteSpace=wrap;html=1;fixedSize=1;" parent="1" vertex="1">
          <mxGeometry x="280" y="1020" width="160" height="80" as="geometry" />
        </mxCell>
        <mxCell id="Hr2sJo4y9AS4UTB7AzaS-23" style="edgeStyle=none;curved=0;rounded=0;orthogonalLoop=1;jettySize=auto;html=1;entryX=0;entryY=0.5;entryDx=0;entryDy=0;fontSize=12;startSize=8;endSize=8;" parent="1" source="Hr2sJo4y9AS4UTB7AzaS-21" target="Hr2sJo4y9AS4UTB7AzaS-17" edge="1">
          <mxGeometry relative="1" as="geometry">
            <Array as="points">
              <mxPoint x="360" y="1240" />
              <mxPoint x="240" y="1240" />
              <mxPoint x="240" y="1060" />
            </Array>
          </mxGeometry>
        </mxCell>
        <mxCell id="Hr2sJo4y9AS4UTB7AzaS-21" value="cout &amp;lt;&amp;lt; &quot; &quot;;" style="shape=parallelogram;perimeter=parallelogramPerimeter;whiteSpace=wrap;html=1;fixedSize=1;" parent="1" vertex="1">
          <mxGeometry x="300" y="1130" width="120" height="60" as="geometry" />
        </mxCell>
        <mxCell id="Hr2sJo4y9AS4UTB7AzaS-26" style="edgeStyle=none;curved=1;rounded=0;orthogonalLoop=1;jettySize=auto;html=1;fontSize=12;startSize=8;endSize=8;" parent="1" source="Hr2sJo4y9AS4UTB7AzaS-25" edge="1">
          <mxGeometry relative="1" as="geometry">
            <mxPoint x="360" y="1420" as="targetPoint" />
          </mxGeometry>
        </mxCell>
        <mxCell id="Hr2sJo4y9AS4UTB7AzaS-25" value="cout &lt;&lt; &quot;* &quot;;" style="shape=parallelogram;perimeter=parallelogramPerimeter;whiteSpace=wrap;html=1;fixedSize=1;" parent="1" vertex="1">
          <mxGeometry x="300" y="1320" width="120" height="60" as="geometry" />
        </mxCell>
        <mxCell id="Hr2sJo4y9AS4UTB7AzaS-27" style="edgeStyle=none;curved=1;rounded=0;orthogonalLoop=1;jettySize=auto;html=1;entryX=0.5;entryY=0;entryDx=0;entryDy=0;fontSize=12;startSize=8;endSize=8;" parent="1" source="Hr2sJo4y9AS4UTB7AzaS-29" target="Hr2sJo4y9AS4UTB7AzaS-31" edge="1">
          <mxGeometry relative="1" as="geometry" />
        </mxCell>
        <mxCell id="Hr2sJo4y9AS4UTB7AzaS-28" style="edgeStyle=none;curved=0;rounded=0;orthogonalLoop=1;jettySize=auto;html=1;fontSize=12;startSize=8;endSize=8;exitX=1;exitY=0.5;exitDx=0;exitDy=0;strokeColor=default;" parent="1" source="Hr2sJo4y9AS4UTB7AzaS-29" edge="1">
          <mxGeometry relative="1" as="geometry">
            <mxPoint x="360" y="1720" as="targetPoint" />
            <Array as="points">
              <mxPoint x="480" y="1460" />
              <mxPoint x="480" y="1680" />
              <mxPoint x="360" y="1680" />
            </Array>
          </mxGeometry>
        </mxCell>
        <mxCell id="Hr2sJo4y9AS4UTB7AzaS-29" value="&amp;nbsp;for (int j = 0; j &amp;lt; n - 2; j++)" style="shape=hexagon;perimeter=hexagonPerimeter2;whiteSpace=wrap;html=1;fixedSize=1;" parent="1" vertex="1">
          <mxGeometry x="280" y="1420" width="160" height="80" as="geometry" />
        </mxCell>
        <mxCell id="Hr2sJo4y9AS4UTB7AzaS-30" style="edgeStyle=none;curved=0;rounded=0;orthogonalLoop=1;jettySize=auto;html=1;entryX=0;entryY=0.5;entryDx=0;entryDy=0;fontSize=12;startSize=8;endSize=8;" parent="1" source="Hr2sJo4y9AS4UTB7AzaS-31" target="Hr2sJo4y9AS4UTB7AzaS-29" edge="1">
          <mxGeometry relative="1" as="geometry">
            <Array as="points">
              <mxPoint x="360" y="1640" />
              <mxPoint x="240" y="1640" />
              <mxPoint x="240" y="1460" />
            </Array>
          </mxGeometry>
        </mxCell>
        <mxCell id="Hr2sJo4y9AS4UTB7AzaS-31" value="cout &amp;lt;&amp;lt; &quot;&amp;nbsp; &quot;;" style="shape=parallelogram;perimeter=parallelogramPerimeter;whiteSpace=wrap;html=1;fixedSize=1;" parent="1" vertex="1">
          <mxGeometry x="300" y="1530" width="120" height="60" as="geometry" />
        </mxCell>
        <mxCell id="Hr2sJo4y9AS4UTB7AzaS-33" style="edgeStyle=none;curved=1;rounded=0;orthogonalLoop=1;jettySize=auto;html=1;fontSize=12;startSize=8;endSize=8;" parent="1" source="Hr2sJo4y9AS4UTB7AzaS-32" edge="1">
          <mxGeometry relative="1" as="geometry">
            <mxPoint x="360" y="1820" as="targetPoint" />
          </mxGeometry>
        </mxCell>
        <mxCell id="Hr2sJo4y9AS4UTB7AzaS-32" value="cout &amp;lt;&amp;lt; &quot;*&quot;;" style="shape=parallelogram;perimeter=parallelogramPerimeter;whiteSpace=wrap;html=1;fixedSize=1;" parent="1" vertex="1">
          <mxGeometry x="300" y="1720" width="120" height="60" as="geometry" />
        </mxCell>
        <mxCell id="Hr2sJo4y9AS4UTB7AzaS-34" style="edgeStyle=none;curved=1;rounded=0;orthogonalLoop=1;jettySize=auto;html=1;entryX=0.5;entryY=0;entryDx=0;entryDy=0;fontSize=12;startSize=8;endSize=8;" parent="1" source="Hr2sJo4y9AS4UTB7AzaS-36" target="Hr2sJo4y9AS4UTB7AzaS-38" edge="1">
          <mxGeometry relative="1" as="geometry" />
        </mxCell>
        <mxCell id="Hr2sJo4y9AS4UTB7AzaS-35" style="edgeStyle=none;curved=0;rounded=0;orthogonalLoop=1;jettySize=auto;html=1;fontSize=12;startSize=8;endSize=8;exitX=1;exitY=0.5;exitDx=0;exitDy=0;strokeColor=default;" parent="1" source="Hr2sJo4y9AS4UTB7AzaS-36" edge="1">
          <mxGeometry relative="1" as="geometry">
            <mxPoint x="360" y="2120" as="targetPoint" />
            <Array as="points">
              <mxPoint x="480" y="1860" />
              <mxPoint x="480" y="2080" />
              <mxPoint x="360" y="2080" />
            </Array>
          </mxGeometry>
        </mxCell>
        <mxCell id="Hr2sJo4y9AS4UTB7AzaS-36" value="for (int j = 0; j &amp;lt; i; j++)" style="shape=hexagon;perimeter=hexagonPerimeter2;whiteSpace=wrap;html=1;fixedSize=1;" parent="1" vertex="1">
          <mxGeometry x="280" y="1820" width="160" height="80" as="geometry" />
        </mxCell>
        <mxCell id="Hr2sJo4y9AS4UTB7AzaS-37" style="edgeStyle=none;curved=0;rounded=0;orthogonalLoop=1;jettySize=auto;html=1;entryX=0;entryY=0.5;entryDx=0;entryDy=0;fontSize=12;startSize=8;endSize=8;" parent="1" source="Hr2sJo4y9AS4UTB7AzaS-38" target="Hr2sJo4y9AS4UTB7AzaS-36" edge="1">
          <mxGeometry relative="1" as="geometry">
            <Array as="points">
              <mxPoint x="360" y="2040" />
              <mxPoint x="240" y="2040" />
              <mxPoint x="240" y="1860" />
            </Array>
          </mxGeometry>
        </mxCell>
        <mxCell id="Hr2sJo4y9AS4UTB7AzaS-38" value="cout &amp;lt;&amp;lt; &quot; &quot;;" style="shape=parallelogram;perimeter=parallelogramPerimeter;whiteSpace=wrap;html=1;fixedSize=1;" parent="1" vertex="1">
          <mxGeometry x="300" y="1930" width="120" height="60" as="geometry" />
        </mxCell>
        <mxCell id="Hr2sJo4y9AS4UTB7AzaS-40" style="edgeStyle=none;curved=0;rounded=0;orthogonalLoop=1;jettySize=auto;html=1;entryX=0;entryY=0.5;entryDx=0;entryDy=0;fontSize=12;startSize=8;endSize=8;" parent="1" source="Hr2sJo4y9AS4UTB7AzaS-39" target="Hr2sJo4y9AS4UTB7AzaS-12" edge="1">
          <mxGeometry relative="1" as="geometry">
            <Array as="points">
              <mxPoint x="360" y="2240" />
              <mxPoint x="200" y="2240" />
              <mxPoint x="200" y="940" />
            </Array>
          </mxGeometry>
        </mxCell>
        <mxCell id="Hr2sJo4y9AS4UTB7AzaS-39" value="cout &amp;lt;&amp;lt; &quot;*&quot; &amp;lt;&amp;lt; endl;" style="shape=parallelogram;perimeter=parallelogramPerimeter;whiteSpace=wrap;html=1;fixedSize=1;" parent="1" vertex="1">
          <mxGeometry x="290" y="2120" width="140" height="60" as="geometry" />
        </mxCell>
        <mxCell id="Hr2sJo4y9AS4UTB7AzaS-43" style="edgeStyle=none;curved=1;rounded=0;orthogonalLoop=1;jettySize=auto;html=1;entryX=0.5;entryY=0;entryDx=0;entryDy=0;fontSize=12;startSize=8;endSize=8;" parent="1" source="Hr2sJo4y9AS4UTB7AzaS-45" target="Hr2sJo4y9AS4UTB7AzaS-47" edge="1">
          <mxGeometry relative="1" as="geometry" />
        </mxCell>
        <mxCell id="Hr2sJo4y9AS4UTB7AzaS-44" style="edgeStyle=none;curved=0;rounded=0;orthogonalLoop=1;jettySize=auto;html=1;fontSize=12;startSize=8;endSize=8;exitX=1;exitY=0.5;exitDx=0;exitDy=0;strokeColor=default;" parent="1" source="Hr2sJo4y9AS4UTB7AzaS-45" edge="1">
          <mxGeometry relative="1" as="geometry">
            <mxPoint x="360" y="2620" as="targetPoint" />
            <Array as="points">
              <mxPoint x="480" y="2360" />
              <mxPoint x="480" y="2580" />
              <mxPoint x="360" y="2580" />
            </Array>
          </mxGeometry>
        </mxCell>
        <mxCell id="Hr2sJo4y9AS4UTB7AzaS-45" value="for (int i = 0; i &amp;lt; n; i++)" style="shape=hexagon;perimeter=hexagonPerimeter2;whiteSpace=wrap;html=1;fixedSize=1;" parent="1" vertex="1">
          <mxGeometry x="280" y="2320" width="160" height="80" as="geometry" />
        </mxCell>
        <mxCell id="Hr2sJo4y9AS4UTB7AzaS-46" style="edgeStyle=none;curved=0;rounded=0;orthogonalLoop=1;jettySize=auto;html=1;entryX=0;entryY=0.5;entryDx=0;entryDy=0;fontSize=12;startSize=8;endSize=8;" parent="1" source="Hr2sJo4y9AS4UTB7AzaS-47" target="Hr2sJo4y9AS4UTB7AzaS-45" edge="1">
          <mxGeometry relative="1" as="geometry">
            <Array as="points">
              <mxPoint x="360" y="2540" />
              <mxPoint x="240" y="2540" />
              <mxPoint x="240" y="2360" />
            </Array>
          </mxGeometry>
        </mxCell>
        <mxCell id="Hr2sJo4y9AS4UTB7AzaS-47" value="cout &amp;lt;&amp;lt; &quot;* &quot;;" style="shape=parallelogram;perimeter=parallelogramPerimeter;whiteSpace=wrap;html=1;fixedSize=1;" parent="1" vertex="1">
          <mxGeometry x="300" y="2430" width="120" height="60" as="geometry" />
        </mxCell>
        <mxCell id="Hr2sJo4y9AS4UTB7AzaS-50" style="edgeStyle=none;curved=1;rounded=0;orthogonalLoop=1;jettySize=auto;html=1;entryX=0.5;entryY=0;entryDx=0;entryDy=0;fontSize=12;startSize=8;endSize=8;" parent="1" source="Hr2sJo4y9AS4UTB7AzaS-52" target="Hr2sJo4y9AS4UTB7AzaS-54" edge="1">
          <mxGeometry relative="1" as="geometry" />
        </mxCell>
        <mxCell id="Hr2sJo4y9AS4UTB7AzaS-51" style="edgeStyle=none;curved=0;rounded=0;orthogonalLoop=1;jettySize=auto;html=1;fontSize=12;startSize=8;endSize=8;exitX=1;exitY=0.5;exitDx=0;exitDy=0;strokeColor=default;" parent="1" source="Hr2sJo4y9AS4UTB7AzaS-52" edge="1">
          <mxGeometry relative="1" as="geometry">
            <mxPoint x="360" y="2920" as="targetPoint" />
            <Array as="points">
              <mxPoint x="480" y="2660" />
              <mxPoint x="480" y="2880" />
              <mxPoint x="360" y="2880" />
            </Array>
          </mxGeometry>
        </mxCell>
        <mxCell id="Hr2sJo4y9AS4UTB7AzaS-52" value="for (int i = 0; i &amp;lt; d - 2; i++)" style="shape=hexagon;perimeter=hexagonPerimeter2;whiteSpace=wrap;html=1;fixedSize=1;" parent="1" vertex="1">
          <mxGeometry x="280" y="2620" width="160" height="80" as="geometry" />
        </mxCell>
        <mxCell id="Hr2sJo4y9AS4UTB7AzaS-53" style="edgeStyle=none;curved=0;rounded=0;orthogonalLoop=1;jettySize=auto;html=1;entryX=0;entryY=0.5;entryDx=0;entryDy=0;fontSize=12;startSize=8;endSize=8;" parent="1" source="Hr2sJo4y9AS4UTB7AzaS-54" target="Hr2sJo4y9AS4UTB7AzaS-52" edge="1">
          <mxGeometry relative="1" as="geometry">
            <Array as="points">
              <mxPoint x="360" y="2840" />
              <mxPoint x="240" y="2840" />
              <mxPoint x="240" y="2660" />
            </Array>
          </mxGeometry>
        </mxCell>
        <mxCell id="Hr2sJo4y9AS4UTB7AzaS-54" value="cout &amp;lt;&amp;lt; &quot; &quot;;" style="shape=parallelogram;perimeter=parallelogramPerimeter;whiteSpace=wrap;html=1;fixedSize=1;" parent="1" vertex="1">
          <mxGeometry x="300" y="2730" width="120" height="60" as="geometry" />
        </mxCell>
        <mxCell id="Hr2sJo4y9AS4UTB7AzaS-71" style="edgeStyle=none;curved=1;rounded=0;orthogonalLoop=1;jettySize=auto;html=1;entryX=0.5;entryY=0;entryDx=0;entryDy=0;fontSize=12;startSize=8;endSize=8;" parent="1" source="Hr2sJo4y9AS4UTB7AzaS-55" target="Hr2sJo4y9AS4UTB7AzaS-57" edge="1">
          <mxGeometry relative="1" as="geometry" />
        </mxCell>
        <mxCell id="Hr2sJo4y9AS4UTB7AzaS-55" value="cout &amp;lt;&amp;lt; &quot;*&quot; &amp;lt;&amp;lt; endl;" style="shape=parallelogram;perimeter=parallelogramPerimeter;whiteSpace=wrap;html=1;fixedSize=1;" parent="1" vertex="1">
          <mxGeometry x="280" y="2920" width="160" height="60" as="geometry" />
        </mxCell>
        <mxCell id="Hr2sJo4y9AS4UTB7AzaS-56" value="" style="edgeStyle=none;curved=1;rounded=0;orthogonalLoop=1;jettySize=auto;html=1;fontSize=12;startSize=8;endSize=8;" parent="1" source="Hr2sJo4y9AS4UTB7AzaS-57" edge="1">
          <mxGeometry relative="1" as="geometry">
            <mxPoint x="360" y="3140" as="targetPoint" />
          </mxGeometry>
        </mxCell>
        <mxCell id="Hr2sJo4y9AS4UTB7AzaS-75" style="edgeStyle=none;shape=connector;curved=0;rounded=0;orthogonalLoop=1;jettySize=auto;html=1;strokeColor=default;align=center;verticalAlign=middle;fontFamily=Helvetica;fontSize=12;fontColor=default;labelBackgroundColor=default;startSize=8;endArrow=classic;endSize=8;exitX=1;exitY=0.5;exitDx=0;exitDy=0;" parent="1" source="Hr2sJo4y9AS4UTB7AzaS-57" edge="1">
          <mxGeometry relative="1" as="geometry">
            <mxPoint x="360" y="4120" as="targetPoint" />
            <Array as="points">
              <mxPoint x="520" y="3060" />
              <mxPoint x="520" y="4080" />
              <mxPoint x="360" y="4080" />
            </Array>
          </mxGeometry>
        </mxCell>
        <mxCell id="Hr2sJo4y9AS4UTB7AzaS-57" value="for (int i = 0; i &amp;lt; n - d - 1; i++)" style="shape=hexagon;perimeter=hexagonPerimeter2;whiteSpace=wrap;html=1;fixedSize=1;" parent="1" vertex="1">
          <mxGeometry x="270" y="3020" width="180" height="80" as="geometry" />
        </mxCell>
        <mxCell id="Hr2sJo4y9AS4UTB7AzaS-58" style="edgeStyle=none;curved=1;rounded=0;orthogonalLoop=1;jettySize=auto;html=1;entryX=0.5;entryY=0;entryDx=0;entryDy=0;fontSize=12;startSize=8;endSize=8;" parent="1" source="Hr2sJo4y9AS4UTB7AzaS-60" target="Hr2sJo4y9AS4UTB7AzaS-62" edge="1">
          <mxGeometry relative="1" as="geometry" />
        </mxCell>
        <mxCell id="Hr2sJo4y9AS4UTB7AzaS-59" style="edgeStyle=none;curved=0;rounded=0;orthogonalLoop=1;jettySize=auto;html=1;fontSize=12;startSize=8;endSize=8;exitX=1;exitY=0.5;exitDx=0;exitDy=0;strokeColor=default;" parent="1" source="Hr2sJo4y9AS4UTB7AzaS-60" edge="1">
          <mxGeometry relative="1" as="geometry">
            <mxPoint x="360" y="3540" as="targetPoint" />
            <Array as="points">
              <mxPoint x="480" y="3280" />
              <mxPoint x="480" y="3500" />
              <mxPoint x="360" y="3500" />
            </Array>
          </mxGeometry>
        </mxCell>
        <mxCell id="Hr2sJo4y9AS4UTB7AzaS-60" value="for (int j = 0; j &amp;lt; n - 2; j++)" style="shape=hexagon;perimeter=hexagonPerimeter2;whiteSpace=wrap;html=1;fixedSize=1;" parent="1" vertex="1">
          <mxGeometry x="280" y="3240" width="160" height="80" as="geometry" />
        </mxCell>
        <mxCell id="Hr2sJo4y9AS4UTB7AzaS-61" style="edgeStyle=none;curved=0;rounded=0;orthogonalLoop=1;jettySize=auto;html=1;entryX=0;entryY=0.5;entryDx=0;entryDy=0;fontSize=12;startSize=8;endSize=8;" parent="1" source="Hr2sJo4y9AS4UTB7AzaS-62" target="Hr2sJo4y9AS4UTB7AzaS-60" edge="1">
          <mxGeometry relative="1" as="geometry">
            <Array as="points">
              <mxPoint x="360" y="3460" />
              <mxPoint x="240" y="3460" />
              <mxPoint x="240" y="3280" />
            </Array>
          </mxGeometry>
        </mxCell>
        <mxCell id="Hr2sJo4y9AS4UTB7AzaS-62" value="cout &amp;lt;&amp;lt; &quot;&amp;nbsp; &quot;;" style="shape=parallelogram;perimeter=parallelogramPerimeter;whiteSpace=wrap;html=1;fixedSize=1;" parent="1" vertex="1">
          <mxGeometry x="300" y="3350" width="120" height="60" as="geometry" />
        </mxCell>
        <mxCell id="Hr2sJo4y9AS4UTB7AzaS-63" style="edgeStyle=none;curved=1;rounded=0;orthogonalLoop=1;jettySize=auto;html=1;fontSize=12;startSize=8;endSize=8;" parent="1" source="Hr2sJo4y9AS4UTB7AzaS-64" edge="1">
          <mxGeometry relative="1" as="geometry">
            <mxPoint x="360" y="3640" as="targetPoint" />
          </mxGeometry>
        </mxCell>
        <mxCell id="Hr2sJo4y9AS4UTB7AzaS-64" value="cout &lt;&lt; &quot;* &quot;;" style="shape=parallelogram;perimeter=parallelogramPerimeter;whiteSpace=wrap;html=1;fixedSize=1;" parent="1" vertex="1">
          <mxGeometry x="300" y="3540" width="120" height="60" as="geometry" />
        </mxCell>
        <mxCell id="Hr2sJo4y9AS4UTB7AzaS-65" style="edgeStyle=none;curved=1;rounded=0;orthogonalLoop=1;jettySize=auto;html=1;entryX=0.5;entryY=0;entryDx=0;entryDy=0;fontSize=12;startSize=8;endSize=8;" parent="1" source="Hr2sJo4y9AS4UTB7AzaS-67" target="Hr2sJo4y9AS4UTB7AzaS-69" edge="1">
          <mxGeometry relative="1" as="geometry" />
        </mxCell>
        <mxCell id="Hr2sJo4y9AS4UTB7AzaS-66" style="edgeStyle=none;curved=0;rounded=0;orthogonalLoop=1;jettySize=auto;html=1;fontSize=12;startSize=8;endSize=8;exitX=1;exitY=0.5;exitDx=0;exitDy=0;strokeColor=default;" parent="1" source="Hr2sJo4y9AS4UTB7AzaS-67" edge="1">
          <mxGeometry relative="1" as="geometry">
            <mxPoint x="360" y="3940" as="targetPoint" />
            <Array as="points">
              <mxPoint x="480" y="3680" />
              <mxPoint x="480" y="3900" />
              <mxPoint x="360" y="3900" />
            </Array>
          </mxGeometry>
        </mxCell>
        <mxCell id="Hr2sJo4y9AS4UTB7AzaS-67" value="for (int i = 0; i &amp;lt; d - 2; i++)" style="shape=hexagon;perimeter=hexagonPerimeter2;whiteSpace=wrap;html=1;fixedSize=1;" parent="1" vertex="1">
          <mxGeometry x="280" y="3640" width="160" height="80" as="geometry" />
        </mxCell>
        <mxCell id="Hr2sJo4y9AS4UTB7AzaS-68" style="edgeStyle=none;curved=0;rounded=0;orthogonalLoop=1;jettySize=auto;html=1;entryX=0;entryY=0.5;entryDx=0;entryDy=0;fontSize=12;startSize=8;endSize=8;" parent="1" source="Hr2sJo4y9AS4UTB7AzaS-69" target="Hr2sJo4y9AS4UTB7AzaS-67" edge="1">
          <mxGeometry relative="1" as="geometry">
            <Array as="points">
              <mxPoint x="360" y="3860" />
              <mxPoint x="240" y="3860" />
              <mxPoint x="240" y="3680" />
            </Array>
          </mxGeometry>
        </mxCell>
        <mxCell id="Hr2sJo4y9AS4UTB7AzaS-69" value="cout &amp;lt;&amp;lt; &quot; &quot;;" style="shape=parallelogram;perimeter=parallelogramPerimeter;whiteSpace=wrap;html=1;fixedSize=1;" parent="1" vertex="1">
          <mxGeometry x="300" y="3750" width="120" height="60" as="geometry" />
        </mxCell>
        <mxCell id="Hr2sJo4y9AS4UTB7AzaS-74" style="edgeStyle=none;curved=0;rounded=0;orthogonalLoop=1;jettySize=auto;html=1;entryX=0;entryY=0.5;entryDx=0;entryDy=0;fontSize=12;startSize=8;endSize=8;exitX=0.5;exitY=1;exitDx=0;exitDy=0;" parent="1" source="Hr2sJo4y9AS4UTB7AzaS-70" target="Hr2sJo4y9AS4UTB7AzaS-57" edge="1">
          <mxGeometry relative="1" as="geometry">
            <Array as="points">
              <mxPoint x="360" y="4040" />
              <mxPoint x="200" y="4040" />
              <mxPoint x="200" y="3060" />
            </Array>
          </mxGeometry>
        </mxCell>
        <mxCell id="Hr2sJo4y9AS4UTB7AzaS-70" value="cout &amp;lt;&amp;lt; &quot;*&quot; &amp;lt;&amp;lt; endl;" style="shape=parallelogram;perimeter=parallelogramPerimeter;whiteSpace=wrap;html=1;fixedSize=1;" parent="1" vertex="1">
          <mxGeometry x="290" y="3940" width="140" height="60" as="geometry" />
        </mxCell>
        <mxCell id="Hr2sJo4y9AS4UTB7AzaS-73" style="edgeStyle=none;curved=1;rounded=0;orthogonalLoop=1;jettySize=auto;html=1;entryX=0.5;entryY=0;entryDx=0;entryDy=0;fontSize=12;startSize=8;endSize=8;" parent="1" source="Hr2sJo4y9AS4UTB7AzaS-72" target="Hr2sJo4y9AS4UTB7AzaS-60" edge="1">
          <mxGeometry relative="1" as="geometry" />
        </mxCell>
        <mxCell id="Hr2sJo4y9AS4UTB7AzaS-72" value="cout &lt;&lt; &quot;* &quot;;" style="shape=parallelogram;perimeter=parallelogramPerimeter;whiteSpace=wrap;html=1;fixedSize=1;" parent="1" vertex="1">
          <mxGeometry x="300" y="3140" width="120" height="60" as="geometry" />
        </mxCell>
        <mxCell id="Hr2sJo4y9AS4UTB7AzaS-95" value="" style="edgeStyle=none;curved=1;rounded=0;orthogonalLoop=1;jettySize=auto;html=1;fontSize=12;startSize=8;endSize=8;" parent="1" source="Hr2sJo4y9AS4UTB7AzaS-97" edge="1">
          <mxGeometry relative="1" as="geometry">
            <mxPoint x="360" y="4240" as="targetPoint" />
          </mxGeometry>
        </mxCell>
        <mxCell id="Hr2sJo4y9AS4UTB7AzaS-96" style="edgeStyle=none;shape=connector;curved=0;rounded=0;orthogonalLoop=1;jettySize=auto;html=1;strokeColor=default;align=center;verticalAlign=middle;fontFamily=Helvetica;fontSize=12;fontColor=default;labelBackgroundColor=default;startSize=8;endArrow=classic;endSize=8;exitX=1;exitY=0.5;exitDx=0;exitDy=0;" parent="1" source="Hr2sJo4y9AS4UTB7AzaS-97" edge="1">
          <mxGeometry relative="1" as="geometry">
            <mxPoint x="360" y="5220" as="targetPoint" />
            <Array as="points">
              <mxPoint x="520" y="4160" />
              <mxPoint x="520" y="5180" />
              <mxPoint x="360" y="5180" />
            </Array>
          </mxGeometry>
        </mxCell>
        <mxCell id="Hr2sJo4y9AS4UTB7AzaS-97" value="for (int i = 0; i &amp;lt; d - 1; i++)" style="shape=hexagon;perimeter=hexagonPerimeter2;whiteSpace=wrap;html=1;fixedSize=1;" parent="1" vertex="1">
          <mxGeometry x="270" y="4120" width="180" height="80" as="geometry" />
        </mxCell>
        <mxCell id="Hr2sJo4y9AS4UTB7AzaS-98" style="edgeStyle=none;curved=1;rounded=0;orthogonalLoop=1;jettySize=auto;html=1;entryX=0.5;entryY=0;entryDx=0;entryDy=0;fontSize=12;startSize=8;endSize=8;" parent="1" source="Hr2sJo4y9AS4UTB7AzaS-100" target="Hr2sJo4y9AS4UTB7AzaS-102" edge="1">
          <mxGeometry relative="1" as="geometry" />
        </mxCell>
        <mxCell id="Hr2sJo4y9AS4UTB7AzaS-99" style="edgeStyle=none;curved=0;rounded=0;orthogonalLoop=1;jettySize=auto;html=1;fontSize=12;startSize=8;endSize=8;exitX=1;exitY=0.5;exitDx=0;exitDy=0;strokeColor=default;" parent="1" source="Hr2sJo4y9AS4UTB7AzaS-100" edge="1">
          <mxGeometry relative="1" as="geometry">
            <mxPoint x="360" y="4640" as="targetPoint" />
            <Array as="points">
              <mxPoint x="480" y="4380" />
              <mxPoint x="480" y="4600" />
              <mxPoint x="360" y="4600" />
            </Array>
          </mxGeometry>
        </mxCell>
        <mxCell id="Hr2sJo4y9AS4UTB7AzaS-100" value="for (int j = 0; j &amp;lt; n - 2; j++)" style="shape=hexagon;perimeter=hexagonPerimeter2;whiteSpace=wrap;html=1;fixedSize=1;" parent="1" vertex="1">
          <mxGeometry x="280" y="4340" width="160" height="80" as="geometry" />
        </mxCell>
        <mxCell id="Hr2sJo4y9AS4UTB7AzaS-101" style="edgeStyle=none;curved=0;rounded=0;orthogonalLoop=1;jettySize=auto;html=1;entryX=0;entryY=0.5;entryDx=0;entryDy=0;fontSize=12;startSize=8;endSize=8;" parent="1" source="Hr2sJo4y9AS4UTB7AzaS-102" target="Hr2sJo4y9AS4UTB7AzaS-100" edge="1">
          <mxGeometry relative="1" as="geometry">
            <Array as="points">
              <mxPoint x="360" y="4560" />
              <mxPoint x="240" y="4560" />
              <mxPoint x="240" y="4380" />
            </Array>
          </mxGeometry>
        </mxCell>
        <mxCell id="Hr2sJo4y9AS4UTB7AzaS-102" value="cout &amp;lt;&amp;lt; &quot;&amp;nbsp; &quot;;" style="shape=parallelogram;perimeter=parallelogramPerimeter;whiteSpace=wrap;html=1;fixedSize=1;" parent="1" vertex="1">
          <mxGeometry x="300" y="4450" width="120" height="60" as="geometry" />
        </mxCell>
        <mxCell id="Hr2sJo4y9AS4UTB7AzaS-103" style="edgeStyle=none;curved=1;rounded=0;orthogonalLoop=1;jettySize=auto;html=1;fontSize=12;startSize=8;endSize=8;" parent="1" source="Hr2sJo4y9AS4UTB7AzaS-104" edge="1">
          <mxGeometry relative="1" as="geometry">
            <mxPoint x="360" y="4740" as="targetPoint" />
          </mxGeometry>
        </mxCell>
        <mxCell id="Hr2sJo4y9AS4UTB7AzaS-104" value="cout &amp;lt;&amp;lt; &quot;*&quot;;" style="shape=parallelogram;perimeter=parallelogramPerimeter;whiteSpace=wrap;html=1;fixedSize=1;" parent="1" vertex="1">
          <mxGeometry x="300" y="4640" width="120" height="60" as="geometry" />
        </mxCell>
        <mxCell id="Hr2sJo4y9AS4UTB7AzaS-105" style="edgeStyle=none;curved=1;rounded=0;orthogonalLoop=1;jettySize=auto;html=1;entryX=0.5;entryY=0;entryDx=0;entryDy=0;fontSize=12;startSize=8;endSize=8;" parent="1" source="Hr2sJo4y9AS4UTB7AzaS-107" target="Hr2sJo4y9AS4UTB7AzaS-109" edge="1">
          <mxGeometry relative="1" as="geometry" />
        </mxCell>
        <mxCell id="Hr2sJo4y9AS4UTB7AzaS-106" style="edgeStyle=none;curved=0;rounded=0;orthogonalLoop=1;jettySize=auto;html=1;fontSize=12;startSize=8;endSize=8;exitX=1;exitY=0.5;exitDx=0;exitDy=0;strokeColor=default;" parent="1" source="Hr2sJo4y9AS4UTB7AzaS-107" edge="1">
          <mxGeometry relative="1" as="geometry">
            <mxPoint x="360" y="5040" as="targetPoint" />
            <Array as="points">
              <mxPoint x="480" y="4780" />
              <mxPoint x="480" y="5000" />
              <mxPoint x="360" y="5000" />
            </Array>
          </mxGeometry>
        </mxCell>
        <mxCell id="Hr2sJo4y9AS4UTB7AzaS-107" value="for (int j = 1; j &amp;lt; d - i-1; j++)" style="shape=hexagon;perimeter=hexagonPerimeter2;whiteSpace=wrap;html=1;fixedSize=1;" parent="1" vertex="1">
          <mxGeometry x="280" y="4740" width="160" height="80" as="geometry" />
        </mxCell>
        <mxCell id="Hr2sJo4y9AS4UTB7AzaS-108" style="edgeStyle=none;curved=0;rounded=0;orthogonalLoop=1;jettySize=auto;html=1;entryX=0;entryY=0.5;entryDx=0;entryDy=0;fontSize=12;startSize=8;endSize=8;" parent="1" source="Hr2sJo4y9AS4UTB7AzaS-109" target="Hr2sJo4y9AS4UTB7AzaS-107" edge="1">
          <mxGeometry relative="1" as="geometry">
            <Array as="points">
              <mxPoint x="360" y="4960" />
              <mxPoint x="240" y="4960" />
              <mxPoint x="240" y="4780" />
            </Array>
          </mxGeometry>
        </mxCell>
        <mxCell id="Hr2sJo4y9AS4UTB7AzaS-109" value="cout &amp;lt;&amp;lt; &quot; &quot;;" style="shape=parallelogram;perimeter=parallelogramPerimeter;whiteSpace=wrap;html=1;fixedSize=1;" parent="1" vertex="1">
          <mxGeometry x="300" y="4850" width="120" height="60" as="geometry" />
        </mxCell>
        <mxCell id="Hr2sJo4y9AS4UTB7AzaS-110" style="edgeStyle=none;curved=0;rounded=0;orthogonalLoop=1;jettySize=auto;html=1;entryX=0;entryY=0.5;entryDx=0;entryDy=0;fontSize=12;startSize=8;endSize=8;exitX=0.5;exitY=1;exitDx=0;exitDy=0;" parent="1" source="Hr2sJo4y9AS4UTB7AzaS-111" target="Hr2sJo4y9AS4UTB7AzaS-97" edge="1">
          <mxGeometry relative="1" as="geometry">
            <Array as="points">
              <mxPoint x="360" y="5140" />
              <mxPoint x="200" y="5140" />
              <mxPoint x="200" y="4160" />
            </Array>
          </mxGeometry>
        </mxCell>
        <mxCell id="Hr2sJo4y9AS4UTB7AzaS-111" value="cout &amp;lt;&amp;lt; &quot;*&quot; &amp;lt;&amp;lt; endl;" style="shape=parallelogram;perimeter=parallelogramPerimeter;whiteSpace=wrap;html=1;fixedSize=1;" parent="1" vertex="1">
          <mxGeometry x="290" y="5040" width="140" height="60" as="geometry" />
        </mxCell>
        <mxCell id="Hr2sJo4y9AS4UTB7AzaS-112" style="edgeStyle=none;curved=1;rounded=0;orthogonalLoop=1;jettySize=auto;html=1;entryX=0.5;entryY=0;entryDx=0;entryDy=0;fontSize=12;startSize=8;endSize=8;" parent="1" source="Hr2sJo4y9AS4UTB7AzaS-113" target="Hr2sJo4y9AS4UTB7AzaS-100" edge="1">
          <mxGeometry relative="1" as="geometry" />
        </mxCell>
        <mxCell id="Hr2sJo4y9AS4UTB7AzaS-113" value="cout &lt;&lt; &quot;* &quot;;" style="shape=parallelogram;perimeter=parallelogramPerimeter;whiteSpace=wrap;html=1;fixedSize=1;" parent="1" vertex="1">
          <mxGeometry x="300" y="4240" width="120" height="60" as="geometry" />
        </mxCell>
        <mxCell id="Hr2sJo4y9AS4UTB7AzaS-115" style="edgeStyle=none;shape=connector;curved=0;rounded=0;orthogonalLoop=1;jettySize=auto;html=1;strokeColor=default;align=center;verticalAlign=middle;fontFamily=Helvetica;fontSize=12;fontColor=default;labelBackgroundColor=default;startSize=8;endArrow=classic;endSize=8;" parent="1" source="Hr2sJo4y9AS4UTB7AzaS-114" target="Hr2sJo4y9AS4UTB7AzaS-116" edge="1">
          <mxGeometry relative="1" as="geometry">
            <mxPoint x="360" y="5340" as="targetPoint" />
          </mxGeometry>
        </mxCell>
        <mxCell id="Hr2sJo4y9AS4UTB7AzaS-118" style="edgeStyle=none;shape=connector;curved=0;rounded=0;orthogonalLoop=1;jettySize=auto;html=1;strokeColor=default;align=center;verticalAlign=middle;fontFamily=Helvetica;fontSize=12;fontColor=default;labelBackgroundColor=default;startSize=8;endArrow=classic;endSize=8;exitX=1;exitY=0.5;exitDx=0;exitDy=0;" parent="1" source="Hr2sJo4y9AS4UTB7AzaS-114" edge="1">
          <mxGeometry relative="1" as="geometry">
            <mxPoint x="360" y="5520" as="targetPoint" />
            <Array as="points">
              <mxPoint x="480" y="5261" />
              <mxPoint x="480" y="5480" />
              <mxPoint x="360" y="5480" />
            </Array>
          </mxGeometry>
        </mxCell>
        <mxCell id="Hr2sJo4y9AS4UTB7AzaS-114" value="for (int i = 0; i &lt; n; i++)" style="shape=hexagon;perimeter=hexagonPerimeter2;whiteSpace=wrap;html=1;fixedSize=1;fontFamily=Helvetica;fontSize=12;fontColor=default;labelBackgroundColor=default;" parent="1" vertex="1">
          <mxGeometry x="280" y="5221" width="160" height="80" as="geometry" />
        </mxCell>
        <mxCell id="Hr2sJo4y9AS4UTB7AzaS-117" style="edgeStyle=none;shape=connector;curved=0;rounded=0;orthogonalLoop=1;jettySize=auto;html=1;entryX=0;entryY=0.5;entryDx=0;entryDy=0;strokeColor=default;align=center;verticalAlign=middle;fontFamily=Helvetica;fontSize=12;fontColor=default;labelBackgroundColor=default;startSize=8;endArrow=classic;endSize=8;exitX=0.5;exitY=1;exitDx=0;exitDy=0;" parent="1" source="Hr2sJo4y9AS4UTB7AzaS-116" target="Hr2sJo4y9AS4UTB7AzaS-114" edge="1">
          <mxGeometry relative="1" as="geometry">
            <Array as="points">
              <mxPoint x="360" y="5440" />
              <mxPoint x="240" y="5440" />
              <mxPoint x="240" y="5260" />
            </Array>
          </mxGeometry>
        </mxCell>
        <mxCell id="Hr2sJo4y9AS4UTB7AzaS-116" value="cout &lt;&lt; &quot;* &quot;;" style="shape=parallelogram;perimeter=parallelogramPerimeter;whiteSpace=wrap;html=1;fixedSize=1;fontFamily=Helvetica;fontSize=12;fontColor=default;labelBackgroundColor=default;" parent="1" vertex="1">
          <mxGeometry x="300" y="5340" width="120" height="60" as="geometry" />
        </mxCell>
        <mxCell id="Hr2sJo4y9AS4UTB7AzaS-119" value="cout &lt;&lt; endl;" style="shape=parallelogram;perimeter=parallelogramPerimeter;whiteSpace=wrap;html=1;fixedSize=1;fontFamily=Helvetica;fontSize=12;fontColor=default;labelBackgroundColor=default;" parent="1" vertex="1">
          <mxGeometry x="300" y="5520" width="120" height="60" as="geometry" />
        </mxCell>
        <mxCell id="-OA93osAXl7HKR229HWO-1" style="edgeStyle=orthogonalEdgeStyle;rounded=0;orthogonalLoop=1;jettySize=auto;html=1;" parent="1" edge="1">
          <mxGeometry relative="1" as="geometry">
            <mxPoint x="360" y="5680" as="targetPoint" />
            <mxPoint x="360" y="5580" as="sourcePoint" />
          </mxGeometry>
        </mxCell>
        <mxCell id="-OA93osAXl7HKR229HWO-2" style="edgeStyle=orthogonalEdgeStyle;rounded=0;orthogonalLoop=1;jettySize=auto;html=1;entryX=0.5;entryY=0;entryDx=0;entryDy=0;" parent="1" edge="1">
          <mxGeometry relative="1" as="geometry">
            <mxPoint x="360.0000000000001" y="5680" as="targetPoint" />
            <mxPoint x="360.0000000000001" y="5580" as="sourcePoint" />
          </mxGeometry>
        </mxCell>
        <mxCell id="-OA93osAXl7HKR229HWO-3" value="" style="endArrow=none;dashed=1;html=1;rounded=0;" parent="1" target="-OA93osAXl7HKR229HWO-4" edge="1">
          <mxGeometry width="50" height="50" relative="1" as="geometry">
            <mxPoint x="360" y="5620" as="sourcePoint" />
            <mxPoint x="520" y="5620" as="targetPoint" />
          </mxGeometry>
        </mxCell>
        <mxCell id="-OA93osAXl7HKR229HWO-4" value="" style="shape=curlyBracket;whiteSpace=wrap;html=1;rounded=1;labelPosition=left;verticalLabelPosition=middle;align=right;verticalAlign=middle;" parent="1" vertex="1">
          <mxGeometry x="500" y="5560" width="110" height="120" as="geometry" />
        </mxCell>
        <mxCell id="-OA93osAXl7HKR229HWO-5" value="КОНЕЦ" style="ellipse;whiteSpace=wrap;html=1;" parent="1" vertex="1">
          <mxGeometry x="300" y="5680" width="120" height="80" as="geometry" />
        </mxCell>
        <mxCell id="-OA93osAXl7HKR229HWO-6" value="return 0;&lt;br&gt;}" style="text;html=1;align=left;verticalAlign=middle;whiteSpace=wrap;rounded=0;" parent="1" vertex="1">
          <mxGeometry x="560" y="5570" width="150" height="100" as="geometry" />
        </mxCell>
      </root>
    </mxGraphModel>
  </diagram>
  <diagram id="Tw9xCRhm13sfmbjYlTz5" name="Страница — 3">
    <mxGraphModel dx="1212" dy="1223" grid="1" gridSize="10" guides="1" tooltips="1" connect="1" arrows="1" fold="1" page="1" pageScale="1" pageWidth="827" pageHeight="1169" math="0" shadow="0">
      <root>
        <mxCell id="0" />
        <mxCell id="1" parent="0" />
        <mxCell id="XuPx_UmooIjLX2FDCulV-1" style="edgeStyle=orthogonalEdgeStyle;rounded=0;orthogonalLoop=1;jettySize=auto;html=1;entryX=0.5;entryY=0;entryDx=0;entryDy=0;" edge="1" parent="1">
          <mxGeometry relative="1" as="geometry">
            <mxPoint x="360.0000000000001" y="200" as="targetPoint" />
            <mxPoint x="360.0000000000001" y="100" as="sourcePoint" />
          </mxGeometry>
        </mxCell>
        <mxCell id="XuPx_UmooIjLX2FDCulV-2" value="НАЧАЛО" style="ellipse;whiteSpace=wrap;html=1;" vertex="1" parent="1">
          <mxGeometry x="300" y="20" width="120" height="80" as="geometry" />
        </mxCell>
        <mxCell id="XuPx_UmooIjLX2FDCulV-3" value="" style="endArrow=none;dashed=1;html=1;rounded=0;" edge="1" parent="1" target="XuPx_UmooIjLX2FDCulV-4">
          <mxGeometry width="50" height="50" relative="1" as="geometry">
            <mxPoint x="360" y="140" as="sourcePoint" />
            <mxPoint x="520" y="140" as="targetPoint" />
          </mxGeometry>
        </mxCell>
        <mxCell id="XuPx_UmooIjLX2FDCulV-4" value="" style="shape=curlyBracket;whiteSpace=wrap;html=1;rounded=1;labelPosition=left;verticalLabelPosition=middle;align=right;verticalAlign=middle;" vertex="1" parent="1">
          <mxGeometry x="500" y="80" width="110" height="120" as="geometry" />
        </mxCell>
        <mxCell id="XuPx_UmooIjLX2FDCulV-5" value="&lt;div align=&quot;left&quot;&gt;#include &amp;lt;iostream&amp;gt;&lt;br&gt;using namespace std;&lt;br&gt;int main()&lt;br&gt;&lt;/div&gt;&lt;div align=&quot;left&quot;&gt;{&lt;/div&gt;" style="text;html=1;align=left;verticalAlign=middle;whiteSpace=wrap;rounded=0;" vertex="1" parent="1">
          <mxGeometry x="570" y="90" width="150" height="100" as="geometry" />
        </mxCell>
        <mxCell id="XuPx_UmooIjLX2FDCulV-8" style="edgeStyle=none;shape=connector;curved=0;rounded=0;orthogonalLoop=1;jettySize=auto;html=1;entryX=0.5;entryY=0;entryDx=0;entryDy=0;strokeColor=default;align=center;verticalAlign=middle;fontFamily=Helvetica;fontSize=12;fontColor=default;labelBackgroundColor=default;startSize=8;endArrow=classic;endSize=8;" edge="1" parent="1" source="XuPx_UmooIjLX2FDCulV-6" target="XuPx_UmooIjLX2FDCulV-7">
          <mxGeometry relative="1" as="geometry" />
        </mxCell>
        <mxCell id="XuPx_UmooIjLX2FDCulV-6" value="int n, min, max,tmp;" style="rounded=0;whiteSpace=wrap;html=1;fontFamily=Helvetica;fontSize=12;fontColor=default;labelBackgroundColor=default;" vertex="1" parent="1">
          <mxGeometry x="285" y="200" width="150" height="60" as="geometry" />
        </mxCell>
        <mxCell id="XuPx_UmooIjLX2FDCulV-9" style="edgeStyle=none;shape=connector;curved=0;rounded=0;orthogonalLoop=1;jettySize=auto;html=1;strokeColor=default;align=center;verticalAlign=middle;fontFamily=Helvetica;fontSize=12;fontColor=default;labelBackgroundColor=default;startSize=8;endArrow=classic;endSize=8;" edge="1" parent="1" source="XuPx_UmooIjLX2FDCulV-7" target="XuPx_UmooIjLX2FDCulV-10">
          <mxGeometry relative="1" as="geometry">
            <mxPoint x="360" y="400" as="targetPoint" />
          </mxGeometry>
        </mxCell>
        <mxCell id="XuPx_UmooIjLX2FDCulV-7" value="cout &lt;&lt; &quot;Введите длину последовательности: &quot;;" style="shape=parallelogram;perimeter=parallelogramPerimeter;whiteSpace=wrap;html=1;fixedSize=1;fontFamily=Helvetica;fontSize=12;fontColor=default;labelBackgroundColor=default;" vertex="1" parent="1">
          <mxGeometry x="205" y="300" width="310" height="60" as="geometry" />
        </mxCell>
        <mxCell id="XuPx_UmooIjLX2FDCulV-11" style="edgeStyle=none;shape=connector;curved=0;rounded=0;orthogonalLoop=1;jettySize=auto;html=1;strokeColor=default;align=center;verticalAlign=middle;fontFamily=Helvetica;fontSize=12;fontColor=default;labelBackgroundColor=default;startSize=8;endArrow=classic;endSize=8;" edge="1" parent="1" source="XuPx_UmooIjLX2FDCulV-10">
          <mxGeometry relative="1" as="geometry">
            <mxPoint x="360" y="500" as="targetPoint" />
          </mxGeometry>
        </mxCell>
        <mxCell id="XuPx_UmooIjLX2FDCulV-10" value="cin &gt;&gt; n;" style="rounded=0;whiteSpace=wrap;html=1;fontFamily=Helvetica;fontSize=12;fontColor=default;labelBackgroundColor=default;" vertex="1" parent="1">
          <mxGeometry x="300" y="400" width="120" height="60" as="geometry" />
        </mxCell>
        <mxCell id="XuPx_UmooIjLX2FDCulV-13" style="edgeStyle=none;shape=connector;curved=0;rounded=0;orthogonalLoop=1;jettySize=auto;html=1;strokeColor=default;align=center;verticalAlign=middle;fontFamily=Helvetica;fontSize=12;fontColor=default;labelBackgroundColor=default;startSize=8;endArrow=classic;endSize=8;" edge="1" parent="1" source="XuPx_UmooIjLX2FDCulV-12" target="XuPx_UmooIjLX2FDCulV-14">
          <mxGeometry relative="1" as="geometry">
            <mxPoint x="360" y="600" as="targetPoint" />
          </mxGeometry>
        </mxCell>
        <mxCell id="XuPx_UmooIjLX2FDCulV-12" value="cout &amp;lt;&amp;lt; &quot;Введите 1 число последовательности: &quot;;" style="shape=parallelogram;perimeter=parallelogramPerimeter;whiteSpace=wrap;html=1;fixedSize=1;fontFamily=Helvetica;fontSize=12;fontColor=default;labelBackgroundColor=default;" vertex="1" parent="1">
          <mxGeometry x="205" y="500" width="310" height="60" as="geometry" />
        </mxCell>
        <mxCell id="XuPx_UmooIjLX2FDCulV-15" style="edgeStyle=none;shape=connector;curved=0;rounded=0;orthogonalLoop=1;jettySize=auto;html=1;strokeColor=default;align=center;verticalAlign=middle;fontFamily=Helvetica;fontSize=12;fontColor=default;labelBackgroundColor=default;startSize=8;endArrow=classic;endSize=8;" edge="1" parent="1" source="XuPx_UmooIjLX2FDCulV-14" target="XuPx_UmooIjLX2FDCulV-16">
          <mxGeometry relative="1" as="geometry">
            <mxPoint x="360" y="700" as="targetPoint" />
          </mxGeometry>
        </mxCell>
        <mxCell id="XuPx_UmooIjLX2FDCulV-14" value="cin &gt;&gt; max;" style="shape=parallelogram;perimeter=parallelogramPerimeter;whiteSpace=wrap;html=1;fixedSize=1;fontFamily=Helvetica;fontSize=12;fontColor=default;labelBackgroundColor=default;" vertex="1" parent="1">
          <mxGeometry x="300" y="600" width="120" height="60" as="geometry" />
        </mxCell>
        <mxCell id="XuPx_UmooIjLX2FDCulV-17" style="edgeStyle=none;shape=connector;curved=0;rounded=0;orthogonalLoop=1;jettySize=auto;html=1;strokeColor=default;align=center;verticalAlign=middle;fontFamily=Helvetica;fontSize=12;fontColor=default;labelBackgroundColor=default;startSize=8;endArrow=classic;endSize=8;" edge="1" parent="1" source="XuPx_UmooIjLX2FDCulV-16" target="XuPx_UmooIjLX2FDCulV-18">
          <mxGeometry relative="1" as="geometry">
            <mxPoint x="360" y="800" as="targetPoint" />
          </mxGeometry>
        </mxCell>
        <mxCell id="XuPx_UmooIjLX2FDCulV-16" value="min = max;" style="shape=parallelogram;perimeter=parallelogramPerimeter;whiteSpace=wrap;html=1;fixedSize=1;fontFamily=Helvetica;fontSize=12;fontColor=default;labelBackgroundColor=default;" vertex="1" parent="1">
          <mxGeometry x="300" y="700" width="120" height="60" as="geometry" />
        </mxCell>
        <mxCell id="XuPx_UmooIjLX2FDCulV-19" style="edgeStyle=none;shape=connector;curved=0;rounded=0;orthogonalLoop=1;jettySize=auto;html=1;strokeColor=default;align=center;verticalAlign=middle;fontFamily=Helvetica;fontSize=12;fontColor=default;labelBackgroundColor=default;startSize=8;endArrow=classic;endSize=8;" edge="1" parent="1" source="XuPx_UmooIjLX2FDCulV-18" target="XuPx_UmooIjLX2FDCulV-20">
          <mxGeometry relative="1" as="geometry">
            <mxPoint x="360" y="920" as="targetPoint" />
          </mxGeometry>
        </mxCell>
        <mxCell id="XuPx_UmooIjLX2FDCulV-41" style="edgeStyle=none;shape=connector;curved=0;rounded=0;orthogonalLoop=1;jettySize=auto;html=1;entryX=0.5;entryY=0;entryDx=0;entryDy=0;strokeColor=default;align=center;verticalAlign=middle;fontFamily=Helvetica;fontSize=12;fontColor=default;labelBackgroundColor=default;startSize=8;endArrow=classic;endSize=8;exitX=1;exitY=0.5;exitDx=0;exitDy=0;" edge="1" parent="1" source="XuPx_UmooIjLX2FDCulV-18" target="XuPx_UmooIjLX2FDCulV-40">
          <mxGeometry relative="1" as="geometry">
            <Array as="points">
              <mxPoint x="620" y="840" />
              <mxPoint x="620" y="1500" />
              <mxPoint x="360" y="1500" />
            </Array>
          </mxGeometry>
        </mxCell>
        <mxCell id="XuPx_UmooIjLX2FDCulV-18" value="for (int i = 1; i &lt; n; i++)" style="shape=hexagon;perimeter=hexagonPerimeter2;whiteSpace=wrap;html=1;fixedSize=1;fontFamily=Helvetica;fontSize=12;fontColor=default;labelBackgroundColor=default;" vertex="1" parent="1">
          <mxGeometry x="285" y="800" width="150" height="80" as="geometry" />
        </mxCell>
        <mxCell id="XuPx_UmooIjLX2FDCulV-22" style="edgeStyle=none;shape=connector;curved=0;rounded=0;orthogonalLoop=1;jettySize=auto;html=1;entryX=0.5;entryY=0;entryDx=0;entryDy=0;strokeColor=default;align=center;verticalAlign=middle;fontFamily=Helvetica;fontSize=12;fontColor=default;labelBackgroundColor=default;startSize=8;endArrow=classic;endSize=8;" edge="1" parent="1" source="XuPx_UmooIjLX2FDCulV-20" target="XuPx_UmooIjLX2FDCulV-21">
          <mxGeometry relative="1" as="geometry" />
        </mxCell>
        <mxCell id="XuPx_UmooIjLX2FDCulV-20" value="cout &amp;lt;&amp;lt; &quot;Введите &quot;&amp;lt;&amp;lt;i+1&amp;lt;&amp;lt; &quot; число последовательности: &quot;;" style="shape=parallelogram;perimeter=parallelogramPerimeter;whiteSpace=wrap;html=1;fixedSize=1;fontFamily=Helvetica;fontSize=12;fontColor=default;labelBackgroundColor=default;" vertex="1" parent="1">
          <mxGeometry x="180" y="920" width="360" height="60" as="geometry" />
        </mxCell>
        <mxCell id="XuPx_UmooIjLX2FDCulV-24" style="edgeStyle=none;shape=connector;curved=0;rounded=0;orthogonalLoop=1;jettySize=auto;html=1;entryX=0.5;entryY=0;entryDx=0;entryDy=0;strokeColor=default;align=center;verticalAlign=middle;fontFamily=Helvetica;fontSize=12;fontColor=default;labelBackgroundColor=default;startSize=8;endArrow=classic;endSize=8;" edge="1" parent="1" source="XuPx_UmooIjLX2FDCulV-21" target="XuPx_UmooIjLX2FDCulV-23">
          <mxGeometry relative="1" as="geometry" />
        </mxCell>
        <mxCell id="XuPx_UmooIjLX2FDCulV-21" value="cin &gt;&gt; tmp;" style="shape=parallelogram;perimeter=parallelogramPerimeter;whiteSpace=wrap;html=1;fixedSize=1;fontFamily=Helvetica;fontSize=12;fontColor=default;labelBackgroundColor=default;" vertex="1" parent="1">
          <mxGeometry x="300" y="1020" width="120" height="60" as="geometry" />
        </mxCell>
        <mxCell id="XuPx_UmooIjLX2FDCulV-25" style="edgeStyle=none;shape=connector;curved=0;rounded=0;orthogonalLoop=1;jettySize=auto;html=1;strokeColor=default;align=center;verticalAlign=middle;fontFamily=Helvetica;fontSize=12;fontColor=default;labelBackgroundColor=default;startSize=8;endArrow=classic;endSize=8;exitX=1;exitY=0.5;exitDx=0;exitDy=0;" edge="1" parent="1" source="XuPx_UmooIjLX2FDCulV-23" target="XuPx_UmooIjLX2FDCulV-26">
          <mxGeometry relative="1" as="geometry">
            <mxPoint x="520" y="1200" as="targetPoint" />
            <Array as="points">
              <mxPoint x="520" y="1160" />
            </Array>
          </mxGeometry>
        </mxCell>
        <mxCell id="XuPx_UmooIjLX2FDCulV-28" style="edgeStyle=none;shape=connector;curved=0;rounded=0;orthogonalLoop=1;jettySize=auto;html=1;strokeColor=default;align=center;verticalAlign=middle;fontFamily=Helvetica;fontSize=12;fontColor=default;labelBackgroundColor=default;startSize=8;endArrow=classic;endSize=8;" edge="1" parent="1" source="XuPx_UmooIjLX2FDCulV-23">
          <mxGeometry relative="1" as="geometry">
            <mxPoint x="200" y="1200" as="targetPoint" />
            <Array as="points">
              <mxPoint x="200" y="1160" />
            </Array>
          </mxGeometry>
        </mxCell>
        <mxCell id="XuPx_UmooIjLX2FDCulV-23" value="if (tmp &gt; max)" style="rhombus;whiteSpace=wrap;html=1;fontFamily=Helvetica;fontSize=12;fontColor=default;labelBackgroundColor=default;" vertex="1" parent="1">
          <mxGeometry x="300" y="1120" width="120" height="80" as="geometry" />
        </mxCell>
        <mxCell id="XuPx_UmooIjLX2FDCulV-37" style="edgeStyle=none;shape=connector;curved=0;rounded=0;orthogonalLoop=1;jettySize=auto;html=1;strokeColor=default;align=center;verticalAlign=middle;fontFamily=Helvetica;fontSize=12;fontColor=default;labelBackgroundColor=default;startSize=8;endArrow=classic;endSize=8;" edge="1" parent="1" source="XuPx_UmooIjLX2FDCulV-26">
          <mxGeometry relative="1" as="geometry">
            <mxPoint x="360" y="1440" as="targetPoint" />
            <Array as="points">
              <mxPoint x="520" y="1440" />
            </Array>
          </mxGeometry>
        </mxCell>
        <mxCell id="XuPx_UmooIjLX2FDCulV-26" value="max = tmp;" style="rounded=0;whiteSpace=wrap;html=1;fontFamily=Helvetica;fontSize=12;fontColor=default;labelBackgroundColor=default;" vertex="1" parent="1">
          <mxGeometry x="460" y="1200" width="120" height="60" as="geometry" />
        </mxCell>
        <mxCell id="XuPx_UmooIjLX2FDCulV-27" value="1" style="text;html=1;align=center;verticalAlign=middle;resizable=0;points=[];autosize=1;strokeColor=none;fillColor=none;fontSize=12;fontFamily=Helvetica;fontColor=default;labelBackgroundColor=default;" vertex="1" parent="1">
          <mxGeometry x="409" y="1131" width="30" height="30" as="geometry" />
        </mxCell>
        <mxCell id="XuPx_UmooIjLX2FDCulV-31" style="edgeStyle=none;shape=connector;curved=0;rounded=0;orthogonalLoop=1;jettySize=auto;html=1;strokeColor=default;align=center;verticalAlign=middle;fontFamily=Helvetica;fontSize=12;fontColor=default;labelBackgroundColor=default;startSize=8;endArrow=classic;endSize=8;" edge="1" parent="1" source="XuPx_UmooIjLX2FDCulV-29" target="XuPx_UmooIjLX2FDCulV-32">
          <mxGeometry relative="1" as="geometry">
            <mxPoint x="320" y="1280" as="targetPoint" />
            <Array as="points">
              <mxPoint x="320" y="1240" />
            </Array>
          </mxGeometry>
        </mxCell>
        <mxCell id="XuPx_UmooIjLX2FDCulV-34" style="edgeStyle=none;shape=connector;curved=0;rounded=0;orthogonalLoop=1;jettySize=auto;html=1;strokeColor=default;align=center;verticalAlign=middle;fontFamily=Helvetica;fontSize=12;fontColor=default;labelBackgroundColor=default;startSize=8;endArrow=classic;endSize=8;exitX=0;exitY=0.5;exitDx=0;exitDy=0;" edge="1" parent="1" source="XuPx_UmooIjLX2FDCulV-29">
          <mxGeometry relative="1" as="geometry">
            <mxPoint x="200" y="1400" as="targetPoint" />
            <Array as="points">
              <mxPoint x="100" y="1240" />
              <mxPoint x="100" y="1400" />
            </Array>
          </mxGeometry>
        </mxCell>
        <mxCell id="XuPx_UmooIjLX2FDCulV-29" value="if (tmp &lt; min)" style="rhombus;whiteSpace=wrap;html=1;fontFamily=Helvetica;fontSize=12;fontColor=default;labelBackgroundColor=default;" vertex="1" parent="1">
          <mxGeometry x="140" y="1200" width="120" height="80" as="geometry" />
        </mxCell>
        <mxCell id="XuPx_UmooIjLX2FDCulV-30" value="0" style="text;html=1;align=center;verticalAlign=middle;resizable=0;points=[];autosize=1;strokeColor=none;fillColor=none;fontSize=12;fontFamily=Helvetica;fontColor=default;labelBackgroundColor=default;" vertex="1" parent="1">
          <mxGeometry x="279" y="1131" width="30" height="30" as="geometry" />
        </mxCell>
        <mxCell id="XuPx_UmooIjLX2FDCulV-35" style="edgeStyle=none;shape=connector;curved=0;rounded=0;orthogonalLoop=1;jettySize=auto;html=1;strokeColor=default;align=center;verticalAlign=middle;fontFamily=Helvetica;fontSize=12;fontColor=default;labelBackgroundColor=default;startSize=8;endArrow=classic;endSize=8;exitX=0.5;exitY=1;exitDx=0;exitDy=0;" edge="1" parent="1" source="XuPx_UmooIjLX2FDCulV-32">
          <mxGeometry relative="1" as="geometry">
            <mxPoint x="200" y="1400" as="targetPoint" />
            <Array as="points">
              <mxPoint x="320" y="1400" />
            </Array>
          </mxGeometry>
        </mxCell>
        <mxCell id="XuPx_UmooIjLX2FDCulV-32" value="min = tmp;" style="rounded=0;whiteSpace=wrap;html=1;fontFamily=Helvetica;fontSize=12;fontColor=default;labelBackgroundColor=default;" vertex="1" parent="1">
          <mxGeometry x="260" y="1280" width="120" height="60" as="geometry" />
        </mxCell>
        <mxCell id="XuPx_UmooIjLX2FDCulV-33" value="1" style="text;html=1;align=center;verticalAlign=middle;resizable=0;points=[];autosize=1;strokeColor=none;fillColor=none;fontSize=12;fontFamily=Helvetica;fontColor=default;labelBackgroundColor=default;" vertex="1" parent="1">
          <mxGeometry x="259" y="1211" width="30" height="30" as="geometry" />
        </mxCell>
        <mxCell id="XuPx_UmooIjLX2FDCulV-36" value="0" style="text;html=1;align=center;verticalAlign=middle;resizable=0;points=[];autosize=1;strokeColor=none;fillColor=none;fontSize=12;fontFamily=Helvetica;fontColor=default;labelBackgroundColor=default;" vertex="1" parent="1">
          <mxGeometry x="109" y="1211" width="30" height="30" as="geometry" />
        </mxCell>
        <mxCell id="XuPx_UmooIjLX2FDCulV-38" value="" style="endArrow=classic;html=1;rounded=0;strokeColor=default;align=center;verticalAlign=middle;fontFamily=Helvetica;fontSize=12;fontColor=default;labelBackgroundColor=default;edgeStyle=none;startSize=8;endSize=8;curved=0;" edge="1" parent="1">
          <mxGeometry width="50" height="50" relative="1" as="geometry">
            <mxPoint x="200" y="1400" as="sourcePoint" />
            <mxPoint x="360" y="1440" as="targetPoint" />
            <Array as="points">
              <mxPoint x="200" y="1440" />
            </Array>
          </mxGeometry>
        </mxCell>
        <mxCell id="XuPx_UmooIjLX2FDCulV-39" value="" style="endArrow=classic;html=1;rounded=0;strokeColor=default;align=center;verticalAlign=middle;fontFamily=Helvetica;fontSize=12;fontColor=default;labelBackgroundColor=default;edgeStyle=none;startSize=8;endSize=8;curved=0;entryX=0;entryY=0.5;entryDx=0;entryDy=0;" edge="1" parent="1" target="XuPx_UmooIjLX2FDCulV-18">
          <mxGeometry width="50" height="50" relative="1" as="geometry">
            <mxPoint x="360" y="1440" as="sourcePoint" />
            <mxPoint x="320" y="1480" as="targetPoint" />
            <Array as="points">
              <mxPoint x="360" y="1480" />
              <mxPoint x="60" y="1480" />
              <mxPoint x="60" y="840" />
            </Array>
          </mxGeometry>
        </mxCell>
        <mxCell id="XuPx_UmooIjLX2FDCulV-40" value="cout &lt;&lt; &quot;Сумма максимального и минимального элементов последовательности: &quot; &lt;&lt; min + max &lt;&lt; endl;" style="shape=parallelogram;perimeter=parallelogramPerimeter;whiteSpace=wrap;html=1;fixedSize=1;fontFamily=Helvetica;fontSize=12;fontColor=default;labelBackgroundColor=default;" vertex="1" parent="1">
          <mxGeometry x="35" y="1540" width="650" height="50" as="geometry" />
        </mxCell>
        <mxCell id="ZWFeDujsUGJcjoqI04vR-7" style="edgeStyle=orthogonalEdgeStyle;rounded=0;orthogonalLoop=1;jettySize=auto;html=1;" edge="1" parent="1">
          <mxGeometry relative="1" as="geometry">
            <mxPoint x="360" y="1740" as="targetPoint" />
            <mxPoint x="360" y="1640" as="sourcePoint" />
          </mxGeometry>
        </mxCell>
        <mxCell id="ZWFeDujsUGJcjoqI04vR-8" style="edgeStyle=orthogonalEdgeStyle;rounded=0;orthogonalLoop=1;jettySize=auto;html=1;entryX=0.5;entryY=0;entryDx=0;entryDy=0;exitX=0.5;exitY=1;exitDx=0;exitDy=0;" edge="1" parent="1" source="XuPx_UmooIjLX2FDCulV-40">
          <mxGeometry relative="1" as="geometry">
            <mxPoint x="360.0000000000001" y="1740" as="targetPoint" />
            <mxPoint x="360.0000000000001" y="1640" as="sourcePoint" />
          </mxGeometry>
        </mxCell>
        <mxCell id="ZWFeDujsUGJcjoqI04vR-9" value="" style="endArrow=none;dashed=1;html=1;rounded=0;" edge="1" parent="1" target="ZWFeDujsUGJcjoqI04vR-10">
          <mxGeometry width="50" height="50" relative="1" as="geometry">
            <mxPoint x="360" y="1680" as="sourcePoint" />
            <mxPoint x="520" y="1680" as="targetPoint" />
          </mxGeometry>
        </mxCell>
        <mxCell id="ZWFeDujsUGJcjoqI04vR-10" value="" style="shape=curlyBracket;whiteSpace=wrap;html=1;rounded=1;labelPosition=left;verticalLabelPosition=middle;align=right;verticalAlign=middle;" vertex="1" parent="1">
          <mxGeometry x="500" y="1620" width="110" height="120" as="geometry" />
        </mxCell>
        <mxCell id="ZWFeDujsUGJcjoqI04vR-11" value="КОНЕЦ" style="ellipse;whiteSpace=wrap;html=1;" vertex="1" parent="1">
          <mxGeometry x="300" y="1740" width="120" height="80" as="geometry" />
        </mxCell>
        <mxCell id="ZWFeDujsUGJcjoqI04vR-12" value="return 0;&lt;br&gt;}" style="text;html=1;align=left;verticalAlign=middle;whiteSpace=wrap;rounded=0;" vertex="1" parent="1">
          <mxGeometry x="560" y="1630" width="150" height="100" as="geometry" />
        </mxCell>
      </root>
    </mxGraphModel>
  </diagram>
  <diagram id="G9U9ZVtPF-YcgVy2IQUm" name="Страница — 4">
    <mxGraphModel dx="1615" dy="795" grid="1" gridSize="10" guides="1" tooltips="1" connect="1" arrows="1" fold="1" page="1" pageScale="1" pageWidth="827" pageHeight="1169" math="0" shadow="0">
      <root>
        <mxCell id="0" />
        <mxCell id="1" parent="0" />
        <mxCell id="ih-e2RpuJ66KaBrrnDFH-1" style="edgeStyle=orthogonalEdgeStyle;rounded=0;orthogonalLoop=1;jettySize=auto;html=1;entryX=0.5;entryY=0;entryDx=0;entryDy=0;" edge="1" parent="1">
          <mxGeometry relative="1" as="geometry">
            <mxPoint x="360.0000000000001" y="200" as="targetPoint" />
            <mxPoint x="360.0000000000001" y="100" as="sourcePoint" />
          </mxGeometry>
        </mxCell>
        <mxCell id="ih-e2RpuJ66KaBrrnDFH-2" value="НАЧАЛО" style="ellipse;whiteSpace=wrap;html=1;" vertex="1" parent="1">
          <mxGeometry x="300" y="20" width="120" height="80" as="geometry" />
        </mxCell>
        <mxCell id="ih-e2RpuJ66KaBrrnDFH-3" value="" style="endArrow=none;dashed=1;html=1;rounded=0;" edge="1" parent="1" target="ih-e2RpuJ66KaBrrnDFH-4">
          <mxGeometry width="50" height="50" relative="1" as="geometry">
            <mxPoint x="360" y="140" as="sourcePoint" />
            <mxPoint x="520" y="140" as="targetPoint" />
          </mxGeometry>
        </mxCell>
        <mxCell id="ih-e2RpuJ66KaBrrnDFH-4" value="" style="shape=curlyBracket;whiteSpace=wrap;html=1;rounded=1;labelPosition=left;verticalLabelPosition=middle;align=right;verticalAlign=middle;" vertex="1" parent="1">
          <mxGeometry x="500" y="80" width="110" height="120" as="geometry" />
        </mxCell>
        <mxCell id="ih-e2RpuJ66KaBrrnDFH-5" value="&lt;div align=&quot;left&quot;&gt;#include &amp;lt;iostream&amp;gt;&lt;br&gt;using namespace std;&lt;br&gt;int main()&lt;br&gt;&lt;/div&gt;&lt;div align=&quot;left&quot;&gt;{&lt;/div&gt;" style="text;html=1;align=left;verticalAlign=middle;whiteSpace=wrap;rounded=0;" vertex="1" parent="1">
          <mxGeometry x="570" y="90" width="150" height="100" as="geometry" />
        </mxCell>
        <mxCell id="ih-e2RpuJ66KaBrrnDFH-7" style="edgeStyle=none;shape=connector;curved=0;rounded=0;orthogonalLoop=1;jettySize=auto;html=1;strokeColor=default;align=center;verticalAlign=middle;fontFamily=Helvetica;fontSize=12;fontColor=default;labelBackgroundColor=default;startSize=8;endArrow=classic;endSize=8;" edge="1" parent="1" source="ih-e2RpuJ66KaBrrnDFH-6" target="ih-e2RpuJ66KaBrrnDFH-8">
          <mxGeometry relative="1" as="geometry">
            <mxPoint x="359.9999999999998" y="300" as="targetPoint" />
          </mxGeometry>
        </mxCell>
        <mxCell id="ih-e2RpuJ66KaBrrnDFH-6" value="float a, b, c,answ1,answ2,d;" style="rounded=0;whiteSpace=wrap;html=1;fontFamily=Helvetica;fontSize=12;fontColor=default;labelBackgroundColor=default;" vertex="1" parent="1">
          <mxGeometry x="255" y="200" width="210" height="60" as="geometry" />
        </mxCell>
        <mxCell id="ih-e2RpuJ66KaBrrnDFH-10" style="edgeStyle=none;shape=connector;curved=0;rounded=0;orthogonalLoop=1;jettySize=auto;html=1;strokeColor=default;align=center;verticalAlign=middle;fontFamily=Helvetica;fontSize=12;fontColor=default;labelBackgroundColor=default;startSize=8;endArrow=classic;endSize=8;" edge="1" parent="1" source="ih-e2RpuJ66KaBrrnDFH-8" target="ih-e2RpuJ66KaBrrnDFH-11">
          <mxGeometry relative="1" as="geometry">
            <mxPoint x="360" y="400" as="targetPoint" />
          </mxGeometry>
        </mxCell>
        <mxCell id="ih-e2RpuJ66KaBrrnDFH-8" value="cout &lt;&lt; &quot;Для решения квадратного уравнения вида: a * x^2 + b*x + c = 0, введите:&quot; &lt;&lt; endl;" style="shape=parallelogram;perimeter=parallelogramPerimeter;whiteSpace=wrap;html=1;fixedSize=1;fontFamily=Helvetica;fontSize=12;fontColor=default;labelBackgroundColor=default;" vertex="1" parent="1">
          <mxGeometry x="75" y="300" width="570" height="60" as="geometry" />
        </mxCell>
        <mxCell id="ih-e2RpuJ66KaBrrnDFH-12" style="edgeStyle=none;shape=connector;curved=0;rounded=0;orthogonalLoop=1;jettySize=auto;html=1;strokeColor=default;align=center;verticalAlign=middle;fontFamily=Helvetica;fontSize=12;fontColor=default;labelBackgroundColor=default;startSize=8;endArrow=classic;endSize=8;" edge="1" parent="1" source="ih-e2RpuJ66KaBrrnDFH-11" target="ih-e2RpuJ66KaBrrnDFH-13">
          <mxGeometry relative="1" as="geometry">
            <mxPoint x="360" y="500" as="targetPoint" />
          </mxGeometry>
        </mxCell>
        <mxCell id="ih-e2RpuJ66KaBrrnDFH-11" value="cout &lt;&lt; &quot;Коэфицент а: &quot;;" style="shape=parallelogram;perimeter=parallelogramPerimeter;whiteSpace=wrap;html=1;fixedSize=1;fontFamily=Helvetica;fontSize=12;fontColor=default;labelBackgroundColor=default;" vertex="1" parent="1">
          <mxGeometry x="270" y="400" width="180" height="60" as="geometry" />
        </mxCell>
        <mxCell id="ih-e2RpuJ66KaBrrnDFH-14" style="edgeStyle=none;shape=connector;curved=0;rounded=0;orthogonalLoop=1;jettySize=auto;html=1;strokeColor=default;align=center;verticalAlign=middle;fontFamily=Helvetica;fontSize=12;fontColor=default;labelBackgroundColor=default;startSize=8;endArrow=classic;endSize=8;" edge="1" parent="1" source="ih-e2RpuJ66KaBrrnDFH-13">
          <mxGeometry relative="1" as="geometry">
            <mxPoint x="360" y="600" as="targetPoint" />
          </mxGeometry>
        </mxCell>
        <mxCell id="ih-e2RpuJ66KaBrrnDFH-13" value="cin &gt;&gt; a;" style="shape=parallelogram;perimeter=parallelogramPerimeter;whiteSpace=wrap;html=1;fixedSize=1;fontFamily=Helvetica;fontSize=12;fontColor=default;labelBackgroundColor=default;" vertex="1" parent="1">
          <mxGeometry x="300" y="500" width="120" height="60" as="geometry" />
        </mxCell>
        <mxCell id="ih-e2RpuJ66KaBrrnDFH-15" style="edgeStyle=none;shape=connector;curved=0;rounded=0;orthogonalLoop=1;jettySize=auto;html=1;strokeColor=default;align=center;verticalAlign=middle;fontFamily=Helvetica;fontSize=12;fontColor=default;labelBackgroundColor=default;startSize=8;endArrow=classic;endSize=8;" edge="1" parent="1" source="ih-e2RpuJ66KaBrrnDFH-16" target="ih-e2RpuJ66KaBrrnDFH-17">
          <mxGeometry relative="1" as="geometry">
            <mxPoint x="360" y="700" as="targetPoint" />
          </mxGeometry>
        </mxCell>
        <mxCell id="ih-e2RpuJ66KaBrrnDFH-16" value="cout &amp;lt;&amp;lt; &quot;Коэфицент b: &quot;;" style="shape=parallelogram;perimeter=parallelogramPerimeter;whiteSpace=wrap;html=1;fixedSize=1;fontFamily=Helvetica;fontSize=12;fontColor=default;labelBackgroundColor=default;" vertex="1" parent="1">
          <mxGeometry x="270" y="600" width="180" height="60" as="geometry" />
        </mxCell>
        <mxCell id="ih-e2RpuJ66KaBrrnDFH-18" style="edgeStyle=none;shape=connector;curved=0;rounded=0;orthogonalLoop=1;jettySize=auto;html=1;strokeColor=default;align=center;verticalAlign=middle;fontFamily=Helvetica;fontSize=12;fontColor=default;labelBackgroundColor=default;startSize=8;endArrow=classic;endSize=8;" edge="1" parent="1" source="ih-e2RpuJ66KaBrrnDFH-17">
          <mxGeometry relative="1" as="geometry">
            <mxPoint x="360" y="800" as="targetPoint" />
          </mxGeometry>
        </mxCell>
        <mxCell id="ih-e2RpuJ66KaBrrnDFH-17" value="cin &amp;gt;&amp;gt; b;" style="shape=parallelogram;perimeter=parallelogramPerimeter;whiteSpace=wrap;html=1;fixedSize=1;fontFamily=Helvetica;fontSize=12;fontColor=default;labelBackgroundColor=default;" vertex="1" parent="1">
          <mxGeometry x="300" y="700" width="120" height="60" as="geometry" />
        </mxCell>
        <mxCell id="ih-e2RpuJ66KaBrrnDFH-19" style="edgeStyle=none;shape=connector;curved=0;rounded=0;orthogonalLoop=1;jettySize=auto;html=1;strokeColor=default;align=center;verticalAlign=middle;fontFamily=Helvetica;fontSize=12;fontColor=default;labelBackgroundColor=default;startSize=8;endArrow=classic;endSize=8;" edge="1" parent="1" source="ih-e2RpuJ66KaBrrnDFH-20" target="ih-e2RpuJ66KaBrrnDFH-21">
          <mxGeometry relative="1" as="geometry">
            <mxPoint x="360" y="900" as="targetPoint" />
          </mxGeometry>
        </mxCell>
        <mxCell id="ih-e2RpuJ66KaBrrnDFH-20" value="cout &amp;lt;&amp;lt; &quot;Коэфицент c: &quot;;" style="shape=parallelogram;perimeter=parallelogramPerimeter;whiteSpace=wrap;html=1;fixedSize=1;fontFamily=Helvetica;fontSize=12;fontColor=default;labelBackgroundColor=default;" vertex="1" parent="1">
          <mxGeometry x="270" y="800" width="180" height="60" as="geometry" />
        </mxCell>
        <mxCell id="ih-e2RpuJ66KaBrrnDFH-22" style="edgeStyle=none;shape=connector;curved=0;rounded=0;orthogonalLoop=1;jettySize=auto;html=1;strokeColor=default;align=center;verticalAlign=middle;fontFamily=Helvetica;fontSize=12;fontColor=default;labelBackgroundColor=default;startSize=8;endArrow=classic;endSize=8;" edge="1" parent="1" source="ih-e2RpuJ66KaBrrnDFH-21" target="ih-e2RpuJ66KaBrrnDFH-23">
          <mxGeometry relative="1" as="geometry">
            <mxPoint x="360" y="1000" as="targetPoint" />
          </mxGeometry>
        </mxCell>
        <mxCell id="ih-e2RpuJ66KaBrrnDFH-21" value="cin &amp;gt;&amp;gt; c;" style="shape=parallelogram;perimeter=parallelogramPerimeter;whiteSpace=wrap;html=1;fixedSize=1;fontFamily=Helvetica;fontSize=12;fontColor=default;labelBackgroundColor=default;" vertex="1" parent="1">
          <mxGeometry x="300" y="900" width="120" height="60" as="geometry" />
        </mxCell>
        <mxCell id="ih-e2RpuJ66KaBrrnDFH-25" style="edgeStyle=none;shape=connector;curved=0;rounded=0;orthogonalLoop=1;jettySize=auto;html=1;entryX=0.5;entryY=0;entryDx=0;entryDy=0;strokeColor=default;align=center;verticalAlign=middle;fontFamily=Helvetica;fontSize=12;fontColor=default;labelBackgroundColor=default;startSize=8;endArrow=classic;endSize=8;" edge="1" parent="1" source="ih-e2RpuJ66KaBrrnDFH-23" target="ih-e2RpuJ66KaBrrnDFH-24">
          <mxGeometry relative="1" as="geometry" />
        </mxCell>
        <mxCell id="ih-e2RpuJ66KaBrrnDFH-23" value="d = (b * b) - (4 * a * c);" style="rounded=0;whiteSpace=wrap;html=1;fontFamily=Helvetica;fontSize=12;fontColor=default;labelBackgroundColor=default;" vertex="1" parent="1">
          <mxGeometry x="290" y="1000" width="140" height="60" as="geometry" />
        </mxCell>
        <mxCell id="ih-e2RpuJ66KaBrrnDFH-26" style="edgeStyle=none;shape=connector;curved=0;rounded=0;orthogonalLoop=1;jettySize=auto;html=1;strokeColor=default;align=center;verticalAlign=middle;fontFamily=Helvetica;fontSize=12;fontColor=default;labelBackgroundColor=default;startSize=8;endArrow=classic;endSize=8;entryX=0.5;entryY=0;entryDx=0;entryDy=0;" edge="1" parent="1" source="ih-e2RpuJ66KaBrrnDFH-24" target="ih-e2RpuJ66KaBrrnDFH-30">
          <mxGeometry relative="1" as="geometry">
            <mxPoint x="520" y="1200" as="targetPoint" />
            <Array as="points">
              <mxPoint x="520" y="1140" />
            </Array>
          </mxGeometry>
        </mxCell>
        <mxCell id="ih-e2RpuJ66KaBrrnDFH-28" style="edgeStyle=none;shape=connector;curved=0;rounded=0;orthogonalLoop=1;jettySize=auto;html=1;strokeColor=default;align=center;verticalAlign=middle;fontFamily=Helvetica;fontSize=12;fontColor=default;labelBackgroundColor=default;startSize=8;endArrow=classic;endSize=8;" edge="1" parent="1" source="ih-e2RpuJ66KaBrrnDFH-24">
          <mxGeometry relative="1" as="geometry">
            <mxPoint x="200" y="1200" as="targetPoint" />
            <Array as="points">
              <mxPoint x="200" y="1140" />
            </Array>
          </mxGeometry>
        </mxCell>
        <mxCell id="ih-e2RpuJ66KaBrrnDFH-24" value="if (d &gt; 0)" style="rhombus;whiteSpace=wrap;html=1;fontFamily=Helvetica;fontSize=12;fontColor=default;labelBackgroundColor=default;" vertex="1" parent="1">
          <mxGeometry x="320" y="1100" width="80" height="80" as="geometry" />
        </mxCell>
        <mxCell id="ih-e2RpuJ66KaBrrnDFH-27" value="1" style="text;html=1;align=center;verticalAlign=middle;resizable=0;points=[];autosize=1;strokeColor=none;fillColor=none;fontSize=12;fontFamily=Helvetica;fontColor=default;labelBackgroundColor=default;" vertex="1" parent="1">
          <mxGeometry x="389" y="1111" width="30" height="30" as="geometry" />
        </mxCell>
        <mxCell id="ih-e2RpuJ66KaBrrnDFH-29" value="0" style="text;html=1;align=center;verticalAlign=middle;resizable=0;points=[];autosize=1;strokeColor=none;fillColor=none;fontSize=12;fontFamily=Helvetica;fontColor=default;labelBackgroundColor=default;" vertex="1" parent="1">
          <mxGeometry x="289" y="1111" width="30" height="30" as="geometry" />
        </mxCell>
        <mxCell id="ih-e2RpuJ66KaBrrnDFH-32" style="edgeStyle=none;shape=connector;curved=0;rounded=0;orthogonalLoop=1;jettySize=auto;html=1;entryX=0.5;entryY=0;entryDx=0;entryDy=0;strokeColor=default;align=center;verticalAlign=middle;fontFamily=Helvetica;fontSize=12;fontColor=default;labelBackgroundColor=default;startSize=8;endArrow=classic;endSize=8;" edge="1" parent="1" source="ih-e2RpuJ66KaBrrnDFH-30" target="ih-e2RpuJ66KaBrrnDFH-31">
          <mxGeometry relative="1" as="geometry" />
        </mxCell>
        <mxCell id="ih-e2RpuJ66KaBrrnDFH-30" value="answ1 = ((-b) + sqrt(d)) / 2 * a;" style="rounded=0;whiteSpace=wrap;html=1;fontFamily=Helvetica;fontSize=12;fontColor=default;labelBackgroundColor=default;" vertex="1" parent="1">
          <mxGeometry x="420" y="1200" width="200" height="60" as="geometry" />
        </mxCell>
        <mxCell id="ih-e2RpuJ66KaBrrnDFH-34" style="edgeStyle=none;shape=connector;curved=0;rounded=0;orthogonalLoop=1;jettySize=auto;html=1;entryX=0.5;entryY=0;entryDx=0;entryDy=0;strokeColor=default;align=center;verticalAlign=middle;fontFamily=Helvetica;fontSize=12;fontColor=default;labelBackgroundColor=default;startSize=8;endArrow=classic;endSize=8;" edge="1" parent="1" source="ih-e2RpuJ66KaBrrnDFH-31" target="ih-e2RpuJ66KaBrrnDFH-33">
          <mxGeometry relative="1" as="geometry" />
        </mxCell>
        <mxCell id="ih-e2RpuJ66KaBrrnDFH-31" value="answ2 = ((-b) - sqrt(d)) / 2 * a;" style="rounded=0;whiteSpace=wrap;html=1;fontFamily=Helvetica;fontSize=12;fontColor=default;labelBackgroundColor=default;" vertex="1" parent="1">
          <mxGeometry x="420" y="1300" width="200" height="60" as="geometry" />
        </mxCell>
        <mxCell id="ih-e2RpuJ66KaBrrnDFH-35" style="edgeStyle=none;shape=connector;curved=0;rounded=0;orthogonalLoop=1;jettySize=auto;html=1;strokeColor=default;align=center;verticalAlign=middle;fontFamily=Helvetica;fontSize=12;fontColor=default;labelBackgroundColor=default;startSize=8;endArrow=classic;endSize=8;" edge="1" parent="1" source="ih-e2RpuJ66KaBrrnDFH-33">
          <mxGeometry relative="1" as="geometry">
            <mxPoint x="520" y="1500" as="targetPoint" />
          </mxGeometry>
        </mxCell>
        <mxCell id="ih-e2RpuJ66KaBrrnDFH-33" value="cout &lt;&lt; &quot;Первый корень уравнения: &quot; &lt;&lt; answ1 &lt;&lt; endl;" style="shape=parallelogram;perimeter=parallelogramPerimeter;whiteSpace=wrap;html=1;fixedSize=1;fontFamily=Helvetica;fontSize=12;fontColor=default;labelBackgroundColor=default;" vertex="1" parent="1">
          <mxGeometry x="420" y="1400" width="200" height="60" as="geometry" />
        </mxCell>
        <mxCell id="ih-e2RpuJ66KaBrrnDFH-36" value="cout &amp;lt;&amp;lt; &quot;Второй корень уравнения: &quot; &amp;lt;&amp;lt; answ2 &amp;lt;&amp;lt; endl;" style="shape=parallelogram;perimeter=parallelogramPerimeter;whiteSpace=wrap;html=1;fixedSize=1;fontFamily=Helvetica;fontSize=12;fontColor=default;labelBackgroundColor=default;" vertex="1" parent="1">
          <mxGeometry x="419" y="1500" width="200" height="60" as="geometry" />
        </mxCell>
        <mxCell id="ih-e2RpuJ66KaBrrnDFH-39" style="edgeStyle=none;shape=connector;curved=0;rounded=0;orthogonalLoop=1;jettySize=auto;html=1;strokeColor=default;align=center;verticalAlign=middle;fontFamily=Helvetica;fontSize=12;fontColor=default;labelBackgroundColor=default;startSize=8;endArrow=classic;endSize=8;exitX=1;exitY=0.5;exitDx=0;exitDy=0;entryX=0.5;entryY=0;entryDx=0;entryDy=0;" edge="1" parent="1" source="ih-e2RpuJ66KaBrrnDFH-37" target="ih-e2RpuJ66KaBrrnDFH-40">
          <mxGeometry relative="1" as="geometry">
            <mxPoint x="280" y="1280" as="targetPoint" />
            <Array as="points">
              <mxPoint x="280" y="1240" />
            </Array>
          </mxGeometry>
        </mxCell>
        <mxCell id="ih-e2RpuJ66KaBrrnDFH-42" style="edgeStyle=none;shape=connector;curved=0;rounded=0;orthogonalLoop=1;jettySize=auto;html=1;strokeColor=default;align=center;verticalAlign=middle;fontFamily=Helvetica;fontSize=12;fontColor=default;labelBackgroundColor=default;startSize=8;endArrow=classic;endSize=8;exitX=0;exitY=0.5;exitDx=0;exitDy=0;" edge="1" parent="1" source="ih-e2RpuJ66KaBrrnDFH-37" target="ih-e2RpuJ66KaBrrnDFH-43">
          <mxGeometry relative="1" as="geometry">
            <mxPoint x="80" y="1280" as="targetPoint" />
            <Array as="points">
              <mxPoint x="80" y="1240" />
            </Array>
          </mxGeometry>
        </mxCell>
        <mxCell id="ih-e2RpuJ66KaBrrnDFH-37" value="if (d &amp;lt; 0)" style="rhombus;whiteSpace=wrap;html=1;fontFamily=Helvetica;fontSize=12;fontColor=default;labelBackgroundColor=default;" vertex="1" parent="1">
          <mxGeometry x="160" y="1200" width="80" height="80" as="geometry" />
        </mxCell>
        <mxCell id="ih-e2RpuJ66KaBrrnDFH-47" style="edgeStyle=none;shape=connector;curved=0;rounded=0;orthogonalLoop=1;jettySize=auto;html=1;strokeColor=default;align=center;verticalAlign=middle;fontFamily=Helvetica;fontSize=12;fontColor=default;labelBackgroundColor=default;startSize=8;endArrow=classic;endSize=8;" edge="1" parent="1" source="ih-e2RpuJ66KaBrrnDFH-40">
          <mxGeometry relative="1" as="geometry">
            <mxPoint x="200" y="1480" as="targetPoint" />
            <Array as="points">
              <mxPoint x="280" y="1480" />
            </Array>
          </mxGeometry>
        </mxCell>
        <mxCell id="ih-e2RpuJ66KaBrrnDFH-40" value="cout &lt;&lt; &quot;Дискриминант меньше 0. Корней нет.&quot; &lt;&lt; endl;" style="shape=parallelogram;perimeter=parallelogramPerimeter;whiteSpace=wrap;html=1;fixedSize=1;fontFamily=Helvetica;fontSize=12;fontColor=default;labelBackgroundColor=default;" vertex="1" parent="1">
          <mxGeometry x="190" y="1310" width="180" height="60" as="geometry" />
        </mxCell>
        <mxCell id="ih-e2RpuJ66KaBrrnDFH-41" value="1" style="text;html=1;align=center;verticalAlign=middle;resizable=0;points=[];autosize=1;strokeColor=none;fillColor=none;fontSize=12;fontFamily=Helvetica;fontColor=default;labelBackgroundColor=default;" vertex="1" parent="1">
          <mxGeometry x="229" y="1211" width="30" height="30" as="geometry" />
        </mxCell>
        <mxCell id="ih-e2RpuJ66KaBrrnDFH-45" style="edgeStyle=none;shape=connector;curved=0;rounded=0;orthogonalLoop=1;jettySize=auto;html=1;entryX=0.5;entryY=0;entryDx=0;entryDy=0;strokeColor=default;align=center;verticalAlign=middle;fontFamily=Helvetica;fontSize=12;fontColor=default;labelBackgroundColor=default;startSize=8;endArrow=classic;endSize=8;" edge="1" parent="1" source="ih-e2RpuJ66KaBrrnDFH-43" target="ih-e2RpuJ66KaBrrnDFH-44">
          <mxGeometry relative="1" as="geometry" />
        </mxCell>
        <mxCell id="ih-e2RpuJ66KaBrrnDFH-43" value="answ1 = (-b) / 2 * a;" style="rounded=0;whiteSpace=wrap;html=1;fontFamily=Helvetica;fontSize=12;fontColor=default;labelBackgroundColor=default;" vertex="1" parent="1">
          <mxGeometry x="20" y="1280" width="120" height="60" as="geometry" />
        </mxCell>
        <mxCell id="ih-e2RpuJ66KaBrrnDFH-46" style="edgeStyle=none;shape=connector;curved=0;rounded=0;orthogonalLoop=1;jettySize=auto;html=1;strokeColor=default;align=center;verticalAlign=middle;fontFamily=Helvetica;fontSize=12;fontColor=default;labelBackgroundColor=default;startSize=8;endArrow=classic;endSize=8;" edge="1" parent="1" source="ih-e2RpuJ66KaBrrnDFH-44">
          <mxGeometry relative="1" as="geometry">
            <mxPoint x="200" y="1480" as="targetPoint" />
            <Array as="points">
              <mxPoint x="80" y="1480" />
            </Array>
          </mxGeometry>
        </mxCell>
        <mxCell id="ih-e2RpuJ66KaBrrnDFH-44" value="cout &lt;&lt; &quot;Два совпадающих корня уравнения : &quot; &lt;&lt; answ1 &lt;&lt; endl;" style="shape=parallelogram;perimeter=parallelogramPerimeter;whiteSpace=wrap;html=1;fixedSize=1;fontFamily=Helvetica;fontSize=12;fontColor=default;labelBackgroundColor=default;" vertex="1" parent="1">
          <mxGeometry x="-10" y="1380" width="180" height="60" as="geometry" />
        </mxCell>
        <mxCell id="ih-e2RpuJ66KaBrrnDFH-48" value="0" style="text;html=1;align=center;verticalAlign=middle;resizable=0;points=[];autosize=1;strokeColor=none;fillColor=none;fontSize=12;fontFamily=Helvetica;fontColor=default;labelBackgroundColor=default;" vertex="1" parent="1">
          <mxGeometry x="139" y="1211" width="30" height="30" as="geometry" />
        </mxCell>
        <mxCell id="ih-e2RpuJ66KaBrrnDFH-49" value="" style="endArrow=classic;html=1;rounded=0;strokeColor=default;align=center;verticalAlign=middle;fontFamily=Helvetica;fontSize=12;fontColor=default;labelBackgroundColor=default;edgeStyle=none;startSize=8;endSize=8;curved=0;" edge="1" parent="1">
          <mxGeometry width="50" height="50" relative="1" as="geometry">
            <mxPoint x="200" y="1480" as="sourcePoint" />
            <mxPoint x="360" y="1600" as="targetPoint" />
            <Array as="points">
              <mxPoint x="200" y="1600" />
            </Array>
          </mxGeometry>
        </mxCell>
        <mxCell id="ih-e2RpuJ66KaBrrnDFH-50" value="" style="endArrow=classic;html=1;rounded=0;strokeColor=default;align=center;verticalAlign=middle;fontFamily=Helvetica;fontSize=12;fontColor=default;labelBackgroundColor=default;edgeStyle=none;startSize=8;endSize=8;curved=0;exitX=0.5;exitY=1;exitDx=0;exitDy=0;" edge="1" parent="1" source="ih-e2RpuJ66KaBrrnDFH-36">
          <mxGeometry width="50" height="50" relative="1" as="geometry">
            <mxPoint x="340" y="1530" as="sourcePoint" />
            <mxPoint x="360" y="1600" as="targetPoint" />
            <Array as="points">
              <mxPoint x="519" y="1600" />
            </Array>
          </mxGeometry>
        </mxCell>
        <mxCell id="ih-e2RpuJ66KaBrrnDFH-61" style="edgeStyle=orthogonalEdgeStyle;rounded=0;orthogonalLoop=1;jettySize=auto;html=1;" edge="1" parent="1">
          <mxGeometry relative="1" as="geometry">
            <mxPoint x="360" y="1730" as="targetPoint" />
            <mxPoint x="360" y="1630" as="sourcePoint" />
          </mxGeometry>
        </mxCell>
        <mxCell id="ih-e2RpuJ66KaBrrnDFH-62" style="edgeStyle=orthogonalEdgeStyle;rounded=0;orthogonalLoop=1;jettySize=auto;html=1;entryX=0.5;entryY=0;entryDx=0;entryDy=0;" edge="1" parent="1">
          <mxGeometry relative="1" as="geometry">
            <mxPoint x="360.0000000000001" y="1730" as="targetPoint" />
            <mxPoint x="360" y="1600" as="sourcePoint" />
          </mxGeometry>
        </mxCell>
        <mxCell id="ih-e2RpuJ66KaBrrnDFH-63" value="" style="endArrow=none;dashed=1;html=1;rounded=0;" edge="1" parent="1" target="ih-e2RpuJ66KaBrrnDFH-64">
          <mxGeometry width="50" height="50" relative="1" as="geometry">
            <mxPoint x="360" y="1670" as="sourcePoint" />
            <mxPoint x="520" y="1670" as="targetPoint" />
          </mxGeometry>
        </mxCell>
        <mxCell id="ih-e2RpuJ66KaBrrnDFH-64" value="" style="shape=curlyBracket;whiteSpace=wrap;html=1;rounded=1;labelPosition=left;verticalLabelPosition=middle;align=right;verticalAlign=middle;" vertex="1" parent="1">
          <mxGeometry x="500" y="1610" width="110" height="120" as="geometry" />
        </mxCell>
        <mxCell id="ih-e2RpuJ66KaBrrnDFH-65" value="КОНЕЦ" style="ellipse;whiteSpace=wrap;html=1;" vertex="1" parent="1">
          <mxGeometry x="300" y="1730" width="120" height="80" as="geometry" />
        </mxCell>
        <mxCell id="ih-e2RpuJ66KaBrrnDFH-66" value="return 0;&lt;br&gt;}" style="text;html=1;align=left;verticalAlign=middle;whiteSpace=wrap;rounded=0;" vertex="1" parent="1">
          <mxGeometry x="560" y="1620" width="150" height="100" as="geometry" />
        </mxCell>
      </root>
    </mxGraphModel>
  </diagram>
  <diagram id="6DpE73Vqsunoh5j68CqP" name="Страница — 5">
    <mxGraphModel dx="1126" dy="1136" grid="1" gridSize="10" guides="1" tooltips="1" connect="1" arrows="1" fold="1" page="1" pageScale="1" pageWidth="827" pageHeight="1169" math="0" shadow="0">
      <root>
        <mxCell id="0" />
        <mxCell id="1" parent="0" />
        <mxCell id="LDCTkldNFYh6ghgYQ8Bw-1" style="edgeStyle=orthogonalEdgeStyle;rounded=0;orthogonalLoop=1;jettySize=auto;html=1;entryX=0.5;entryY=0;entryDx=0;entryDy=0;" edge="1" parent="1">
          <mxGeometry relative="1" as="geometry">
            <mxPoint x="360.0000000000001" y="200" as="targetPoint" />
            <mxPoint x="360.0000000000001" y="100" as="sourcePoint" />
          </mxGeometry>
        </mxCell>
        <mxCell id="LDCTkldNFYh6ghgYQ8Bw-2" value="НАЧАЛО" style="ellipse;whiteSpace=wrap;html=1;" vertex="1" parent="1">
          <mxGeometry x="300" y="20" width="120" height="80" as="geometry" />
        </mxCell>
        <mxCell id="LDCTkldNFYh6ghgYQ8Bw-3" value="" style="endArrow=none;dashed=1;html=1;rounded=0;" edge="1" parent="1" target="LDCTkldNFYh6ghgYQ8Bw-4">
          <mxGeometry width="50" height="50" relative="1" as="geometry">
            <mxPoint x="360" y="140" as="sourcePoint" />
            <mxPoint x="520" y="140" as="targetPoint" />
          </mxGeometry>
        </mxCell>
        <mxCell id="LDCTkldNFYh6ghgYQ8Bw-4" value="" style="shape=curlyBracket;whiteSpace=wrap;html=1;rounded=1;labelPosition=left;verticalLabelPosition=middle;align=right;verticalAlign=middle;" vertex="1" parent="1">
          <mxGeometry x="500" y="80" width="110" height="120" as="geometry" />
        </mxCell>
        <mxCell id="LDCTkldNFYh6ghgYQ8Bw-5" value="&lt;div align=&quot;left&quot;&gt;#include &amp;lt;iostream&amp;gt;&lt;br&gt;using namespace std;&lt;br&gt;int main()&lt;br&gt;&lt;/div&gt;&lt;div align=&quot;left&quot;&gt;{&lt;/div&gt;" style="text;html=1;align=left;verticalAlign=middle;whiteSpace=wrap;rounded=0;" vertex="1" parent="1">
          <mxGeometry x="570" y="90" width="150" height="100" as="geometry" />
        </mxCell>
        <mxCell id="LDCTkldNFYh6ghgYQ8Bw-7" style="edgeStyle=none;shape=connector;curved=0;rounded=0;orthogonalLoop=1;jettySize=auto;html=1;strokeColor=default;align=center;verticalAlign=middle;fontFamily=Helvetica;fontSize=12;fontColor=default;labelBackgroundColor=default;startSize=8;endArrow=classic;endSize=8;" edge="1" parent="1" source="LDCTkldNFYh6ghgYQ8Bw-6" target="LDCTkldNFYh6ghgYQ8Bw-8">
          <mxGeometry relative="1" as="geometry">
            <mxPoint x="360" y="300" as="targetPoint" />
          </mxGeometry>
        </mxCell>
        <mxCell id="LDCTkldNFYh6ghgYQ8Bw-6" value="int n, sum, tmp;" style="rounded=0;whiteSpace=wrap;html=1;fontFamily=Helvetica;fontSize=12;fontColor=default;labelBackgroundColor=default;" vertex="1" parent="1">
          <mxGeometry x="300" y="200" width="120" height="60" as="geometry" />
        </mxCell>
        <mxCell id="LDCTkldNFYh6ghgYQ8Bw-9" style="edgeStyle=none;shape=connector;curved=0;rounded=0;orthogonalLoop=1;jettySize=auto;html=1;strokeColor=default;align=center;verticalAlign=middle;fontFamily=Helvetica;fontSize=12;fontColor=default;labelBackgroundColor=default;startSize=8;endArrow=classic;endSize=8;" edge="1" parent="1" source="LDCTkldNFYh6ghgYQ8Bw-8" target="LDCTkldNFYh6ghgYQ8Bw-10">
          <mxGeometry relative="1" as="geometry">
            <mxPoint x="360" y="400" as="targetPoint" />
          </mxGeometry>
        </mxCell>
        <mxCell id="LDCTkldNFYh6ghgYQ8Bw-8" value="cout &lt;&lt; &quot;Введите натуральное число N: &quot;;" style="shape=parallelogram;perimeter=parallelogramPerimeter;whiteSpace=wrap;html=1;fixedSize=1;fontFamily=Helvetica;fontSize=12;fontColor=default;labelBackgroundColor=default;" vertex="1" parent="1">
          <mxGeometry x="270" y="300" width="180" height="60" as="geometry" />
        </mxCell>
        <mxCell id="LDCTkldNFYh6ghgYQ8Bw-11" style="edgeStyle=none;shape=connector;curved=0;rounded=0;orthogonalLoop=1;jettySize=auto;html=1;strokeColor=default;align=center;verticalAlign=middle;fontFamily=Helvetica;fontSize=12;fontColor=default;labelBackgroundColor=default;startSize=8;endArrow=classic;endSize=8;" edge="1" parent="1" source="LDCTkldNFYh6ghgYQ8Bw-10" target="LDCTkldNFYh6ghgYQ8Bw-12">
          <mxGeometry relative="1" as="geometry">
            <mxPoint x="360" y="500" as="targetPoint" />
          </mxGeometry>
        </mxCell>
        <mxCell id="LDCTkldNFYh6ghgYQ8Bw-10" value="cin &gt;&gt; n;" style="shape=parallelogram;perimeter=parallelogramPerimeter;whiteSpace=wrap;html=1;fixedSize=1;fontFamily=Helvetica;fontSize=12;fontColor=default;labelBackgroundColor=default;" vertex="1" parent="1">
          <mxGeometry x="300" y="400" width="120" height="60" as="geometry" />
        </mxCell>
        <mxCell id="LDCTkldNFYh6ghgYQ8Bw-13" style="edgeStyle=none;shape=connector;curved=0;rounded=0;orthogonalLoop=1;jettySize=auto;html=1;strokeColor=default;align=center;verticalAlign=middle;fontFamily=Helvetica;fontSize=12;fontColor=default;labelBackgroundColor=default;startSize=8;endArrow=classic;endSize=8;" edge="1" parent="1" source="LDCTkldNFYh6ghgYQ8Bw-12" target="LDCTkldNFYh6ghgYQ8Bw-14">
          <mxGeometry relative="1" as="geometry">
            <mxPoint x="360" y="600" as="targetPoint" />
          </mxGeometry>
        </mxCell>
        <mxCell id="LDCTkldNFYh6ghgYQ8Bw-12" value="sum = 0;" style="rounded=0;whiteSpace=wrap;html=1;fontFamily=Helvetica;fontSize=12;fontColor=default;labelBackgroundColor=default;" vertex="1" parent="1">
          <mxGeometry x="300" y="500" width="120" height="60" as="geometry" />
        </mxCell>
        <mxCell id="LDCTkldNFYh6ghgYQ8Bw-16" style="edgeStyle=none;shape=connector;curved=0;rounded=0;orthogonalLoop=1;jettySize=auto;html=1;entryX=0.5;entryY=0;entryDx=0;entryDy=0;strokeColor=default;align=center;verticalAlign=middle;fontFamily=Helvetica;fontSize=12;fontColor=default;labelBackgroundColor=default;startSize=8;endArrow=classic;endSize=8;" edge="1" parent="1" source="LDCTkldNFYh6ghgYQ8Bw-14" target="LDCTkldNFYh6ghgYQ8Bw-15">
          <mxGeometry relative="1" as="geometry" />
        </mxCell>
        <mxCell id="LDCTkldNFYh6ghgYQ8Bw-14" value="tmp = 0;" style="rounded=0;whiteSpace=wrap;html=1;fontFamily=Helvetica;fontSize=12;fontColor=default;labelBackgroundColor=default;" vertex="1" parent="1">
          <mxGeometry x="300" y="600" width="120" height="60" as="geometry" />
        </mxCell>
        <mxCell id="LDCTkldNFYh6ghgYQ8Bw-18" style="edgeStyle=none;shape=connector;curved=0;rounded=0;orthogonalLoop=1;jettySize=auto;html=1;entryX=0.5;entryY=0;entryDx=0;entryDy=0;strokeColor=default;align=center;verticalAlign=middle;fontFamily=Helvetica;fontSize=12;fontColor=default;labelBackgroundColor=default;startSize=8;endArrow=classic;endSize=8;" edge="1" parent="1" source="LDCTkldNFYh6ghgYQ8Bw-15" target="LDCTkldNFYh6ghgYQ8Bw-17">
          <mxGeometry relative="1" as="geometry" />
        </mxCell>
        <mxCell id="LDCTkldNFYh6ghgYQ8Bw-24" style="edgeStyle=none;shape=connector;curved=0;rounded=0;orthogonalLoop=1;jettySize=auto;html=1;strokeColor=default;align=center;verticalAlign=middle;fontFamily=Helvetica;fontSize=12;fontColor=default;labelBackgroundColor=default;startSize=8;endArrow=classic;endSize=8;exitX=1;exitY=0.5;exitDx=0;exitDy=0;" edge="1" parent="1" source="LDCTkldNFYh6ghgYQ8Bw-15">
          <mxGeometry relative="1" as="geometry">
            <mxPoint x="359.9999999999999" y="1200" as="targetPoint" />
            <Array as="points">
              <mxPoint x="460" y="740" />
              <mxPoint x="460" y="1160" />
              <mxPoint x="360" y="1160" />
            </Array>
          </mxGeometry>
        </mxCell>
        <mxCell id="LDCTkldNFYh6ghgYQ8Bw-15" value="while (n != 0)" style="rhombus;whiteSpace=wrap;html=1;fontFamily=Helvetica;fontSize=12;fontColor=default;labelBackgroundColor=default;" vertex="1" parent="1">
          <mxGeometry x="300" y="700" width="120" height="80" as="geometry" />
        </mxCell>
        <mxCell id="LDCTkldNFYh6ghgYQ8Bw-20" value="" style="edgeStyle=none;shape=connector;curved=0;rounded=0;orthogonalLoop=1;jettySize=auto;html=1;strokeColor=default;align=center;verticalAlign=middle;fontFamily=Helvetica;fontSize=12;fontColor=default;labelBackgroundColor=default;startSize=8;endArrow=classic;endSize=8;" edge="1" parent="1" source="LDCTkldNFYh6ghgYQ8Bw-17" target="LDCTkldNFYh6ghgYQ8Bw-19">
          <mxGeometry relative="1" as="geometry" />
        </mxCell>
        <mxCell id="LDCTkldNFYh6ghgYQ8Bw-17" value="tmp = n % 10;" style="rounded=0;whiteSpace=wrap;html=1;fontFamily=Helvetica;fontSize=12;fontColor=default;labelBackgroundColor=default;" vertex="1" parent="1">
          <mxGeometry x="300" y="820" width="120" height="60" as="geometry" />
        </mxCell>
        <mxCell id="LDCTkldNFYh6ghgYQ8Bw-22" value="" style="edgeStyle=none;shape=connector;curved=0;rounded=0;orthogonalLoop=1;jettySize=auto;html=1;strokeColor=default;align=center;verticalAlign=middle;fontFamily=Helvetica;fontSize=12;fontColor=default;labelBackgroundColor=default;startSize=8;endArrow=classic;endSize=8;" edge="1" parent="1" source="LDCTkldNFYh6ghgYQ8Bw-19" target="LDCTkldNFYh6ghgYQ8Bw-21">
          <mxGeometry relative="1" as="geometry" />
        </mxCell>
        <mxCell id="LDCTkldNFYh6ghgYQ8Bw-19" value="sum += tmp;" style="whiteSpace=wrap;html=1;rounded=0;labelBackgroundColor=default;" vertex="1" parent="1">
          <mxGeometry x="300" y="920" width="120" height="60" as="geometry" />
        </mxCell>
        <mxCell id="LDCTkldNFYh6ghgYQ8Bw-23" style="edgeStyle=none;shape=connector;curved=0;rounded=0;orthogonalLoop=1;jettySize=auto;html=1;entryX=0;entryY=0.5;entryDx=0;entryDy=0;strokeColor=default;align=center;verticalAlign=middle;fontFamily=Helvetica;fontSize=12;fontColor=default;labelBackgroundColor=default;startSize=8;endArrow=classic;endSize=8;" edge="1" parent="1" source="LDCTkldNFYh6ghgYQ8Bw-21" target="LDCTkldNFYh6ghgYQ8Bw-15">
          <mxGeometry relative="1" as="geometry">
            <Array as="points">
              <mxPoint x="360" y="1120" />
              <mxPoint x="260" y="1120" />
              <mxPoint x="260" y="740" />
            </Array>
          </mxGeometry>
        </mxCell>
        <mxCell id="LDCTkldNFYh6ghgYQ8Bw-21" value="n /= 10;" style="whiteSpace=wrap;html=1;rounded=0;labelBackgroundColor=default;" vertex="1" parent="1">
          <mxGeometry x="300" y="1020" width="120" height="60" as="geometry" />
        </mxCell>
        <mxCell id="LDCTkldNFYh6ghgYQ8Bw-25" value="cout &lt;&lt; &quot;Cумма цифр введённого числа: &quot; &lt;&lt; sum &lt;&lt; endl;" style="shape=parallelogram;perimeter=parallelogramPerimeter;whiteSpace=wrap;html=1;fixedSize=1;fontFamily=Helvetica;fontSize=12;fontColor=default;labelBackgroundColor=default;" vertex="1" parent="1">
          <mxGeometry x="255" y="1200" width="210" height="60" as="geometry" />
        </mxCell>
        <mxCell id="LDCTkldNFYh6ghgYQ8Bw-26" style="edgeStyle=orthogonalEdgeStyle;rounded=0;orthogonalLoop=1;jettySize=auto;html=1;" edge="1" parent="1">
          <mxGeometry relative="1" as="geometry">
            <mxPoint x="360" y="1360" as="targetPoint" />
            <mxPoint x="360" y="1260" as="sourcePoint" />
          </mxGeometry>
        </mxCell>
        <mxCell id="LDCTkldNFYh6ghgYQ8Bw-27" style="edgeStyle=orthogonalEdgeStyle;rounded=0;orthogonalLoop=1;jettySize=auto;html=1;entryX=0.5;entryY=0;entryDx=0;entryDy=0;" edge="1" parent="1">
          <mxGeometry relative="1" as="geometry">
            <mxPoint x="360.0000000000001" y="1360" as="targetPoint" />
            <mxPoint x="360.0000000000001" y="1260" as="sourcePoint" />
          </mxGeometry>
        </mxCell>
        <mxCell id="LDCTkldNFYh6ghgYQ8Bw-28" value="" style="endArrow=none;dashed=1;html=1;rounded=0;" edge="1" parent="1" target="LDCTkldNFYh6ghgYQ8Bw-29">
          <mxGeometry width="50" height="50" relative="1" as="geometry">
            <mxPoint x="360" y="1300" as="sourcePoint" />
            <mxPoint x="520" y="1300" as="targetPoint" />
          </mxGeometry>
        </mxCell>
        <mxCell id="LDCTkldNFYh6ghgYQ8Bw-29" value="" style="shape=curlyBracket;whiteSpace=wrap;html=1;rounded=1;labelPosition=left;verticalLabelPosition=middle;align=right;verticalAlign=middle;" vertex="1" parent="1">
          <mxGeometry x="500" y="1240" width="110" height="120" as="geometry" />
        </mxCell>
        <mxCell id="LDCTkldNFYh6ghgYQ8Bw-30" value="КОНЕЦ" style="ellipse;whiteSpace=wrap;html=1;" vertex="1" parent="1">
          <mxGeometry x="300" y="1360" width="120" height="80" as="geometry" />
        </mxCell>
        <mxCell id="LDCTkldNFYh6ghgYQ8Bw-31" value="return 0;&lt;br&gt;}" style="text;html=1;align=left;verticalAlign=middle;whiteSpace=wrap;rounded=0;" vertex="1" parent="1">
          <mxGeometry x="560" y="1250" width="150" height="100" as="geometry" />
        </mxCell>
      </root>
    </mxGraphModel>
  </diagram>
  <diagram id="6p0PJTU7aV3YWTzEpGlk" name="Страница — 6">
    <mxGraphModel dx="788" dy="795" grid="1" gridSize="10" guides="1" tooltips="1" connect="1" arrows="1" fold="1" page="1" pageScale="1" pageWidth="827" pageHeight="1169" math="0" shadow="0">
      <root>
        <mxCell id="0" />
        <mxCell id="1" parent="0" />
        <mxCell id="UFlpwI-chXQjyLhGDIcT-1" style="edgeStyle=orthogonalEdgeStyle;rounded=0;orthogonalLoop=1;jettySize=auto;html=1;entryX=0.5;entryY=0;entryDx=0;entryDy=0;" edge="1" parent="1">
          <mxGeometry relative="1" as="geometry">
            <mxPoint x="360.0000000000001" y="200" as="targetPoint" />
            <mxPoint x="360.0000000000001" y="100" as="sourcePoint" />
          </mxGeometry>
        </mxCell>
        <mxCell id="UFlpwI-chXQjyLhGDIcT-2" value="НАЧАЛО" style="ellipse;whiteSpace=wrap;html=1;" vertex="1" parent="1">
          <mxGeometry x="300" y="20" width="120" height="80" as="geometry" />
        </mxCell>
        <mxCell id="UFlpwI-chXQjyLhGDIcT-3" value="" style="endArrow=none;dashed=1;html=1;rounded=0;" edge="1" parent="1" target="UFlpwI-chXQjyLhGDIcT-4">
          <mxGeometry width="50" height="50" relative="1" as="geometry">
            <mxPoint x="360" y="140" as="sourcePoint" />
            <mxPoint x="520" y="140" as="targetPoint" />
          </mxGeometry>
        </mxCell>
        <mxCell id="UFlpwI-chXQjyLhGDIcT-4" value="" style="shape=curlyBracket;whiteSpace=wrap;html=1;rounded=1;labelPosition=left;verticalLabelPosition=middle;align=right;verticalAlign=middle;" vertex="1" parent="1">
          <mxGeometry x="500" y="80" width="110" height="120" as="geometry" />
        </mxCell>
        <mxCell id="UFlpwI-chXQjyLhGDIcT-5" value="&lt;div align=&quot;left&quot;&gt;#include &amp;lt;iostream&amp;gt;&lt;br&gt;using namespace std;&lt;br&gt;int main()&lt;br&gt;&lt;/div&gt;&lt;div align=&quot;left&quot;&gt;{&lt;/div&gt;" style="text;html=1;align=left;verticalAlign=middle;whiteSpace=wrap;rounded=0;" vertex="1" parent="1">
          <mxGeometry x="570" y="90" width="150" height="100" as="geometry" />
        </mxCell>
        <mxCell id="UFlpwI-chXQjyLhGDIcT-7" style="edgeStyle=none;shape=connector;curved=0;rounded=0;orthogonalLoop=1;jettySize=auto;html=1;strokeColor=default;align=center;verticalAlign=middle;fontFamily=Helvetica;fontSize=12;fontColor=default;labelBackgroundColor=default;startSize=8;endArrow=classic;endSize=8;" edge="1" parent="1" source="UFlpwI-chXQjyLhGDIcT-6" target="UFlpwI-chXQjyLhGDIcT-8">
          <mxGeometry relative="1" as="geometry">
            <mxPoint x="360" y="300" as="targetPoint" />
          </mxGeometry>
        </mxCell>
        <mxCell id="UFlpwI-chXQjyLhGDIcT-6" value="int n, s, tmp;" style="rounded=0;whiteSpace=wrap;html=1;fontFamily=Helvetica;fontSize=12;fontColor=default;labelBackgroundColor=default;" vertex="1" parent="1">
          <mxGeometry x="300" y="200" width="120" height="60" as="geometry" />
        </mxCell>
        <mxCell id="UFlpwI-chXQjyLhGDIcT-9" style="edgeStyle=none;shape=connector;curved=0;rounded=0;orthogonalLoop=1;jettySize=auto;html=1;strokeColor=default;align=center;verticalAlign=middle;fontFamily=Helvetica;fontSize=12;fontColor=default;labelBackgroundColor=default;startSize=8;endArrow=classic;endSize=8;" edge="1" parent="1" source="UFlpwI-chXQjyLhGDIcT-8" target="UFlpwI-chXQjyLhGDIcT-10">
          <mxGeometry relative="1" as="geometry">
            <mxPoint x="360" y="400" as="targetPoint" />
          </mxGeometry>
        </mxCell>
        <mxCell id="UFlpwI-chXQjyLhGDIcT-8" value="bool flag;" style="rounded=0;whiteSpace=wrap;html=1;fontFamily=Helvetica;fontSize=12;fontColor=default;labelBackgroundColor=default;" vertex="1" parent="1">
          <mxGeometry x="300" y="300" width="120" height="60" as="geometry" />
        </mxCell>
        <mxCell id="UFlpwI-chXQjyLhGDIcT-10" value="cout &lt;&lt; &quot;Введите натуральное число N: &quot;;" style="shape=parallelogram;perimeter=parallelogramPerimeter;whiteSpace=wrap;html=1;fixedSize=1;fontFamily=Helvetica;fontSize=12;fontColor=default;labelBackgroundColor=default;" vertex="1" parent="1">
          <mxGeometry x="265" y="400" width="190" height="60" as="geometry" />
        </mxCell>
      </root>
    </mxGraphModel>
  </diagram>
  <diagram id="rfSyswI_VTbl4AILrXdx" name="Страница — 7">
    <mxGraphModel dx="788" dy="745" grid="1" gridSize="10" guides="1" tooltips="1" connect="1" arrows="1" fold="1" page="1" pageScale="1" pageWidth="827" pageHeight="1169" math="0" shadow="0">
      <root>
        <mxCell id="0" />
        <mxCell id="1" parent="0" />
      </root>
    </mxGraphModel>
  </diagram>
  <diagram id="-gvQg_kAyXnv9Sumk6ig" name="Страница — 8">
    <mxGraphModel dx="2405" dy="1988" grid="1" gridSize="10" guides="1" tooltips="1" connect="1" arrows="1" fold="1" page="1" pageScale="1" pageWidth="827" pageHeight="1169" math="0" shadow="0">
      <root>
        <mxCell id="0" />
        <mxCell id="1" parent="0" />
        <mxCell id="_1OQamMVPVHyX1oL9Y-Y-1" style="edgeStyle=orthogonalEdgeStyle;rounded=0;orthogonalLoop=1;jettySize=auto;html=1;entryX=0.5;entryY=0;entryDx=0;entryDy=0;" edge="1" parent="1">
          <mxGeometry relative="1" as="geometry">
            <mxPoint x="360.0000000000001" y="200" as="targetPoint" />
            <mxPoint x="360.0000000000001" y="100" as="sourcePoint" />
          </mxGeometry>
        </mxCell>
        <mxCell id="_1OQamMVPVHyX1oL9Y-Y-2" value="НАЧАЛО" style="ellipse;whiteSpace=wrap;html=1;" vertex="1" parent="1">
          <mxGeometry x="300" y="20" width="120" height="80" as="geometry" />
        </mxCell>
        <mxCell id="_1OQamMVPVHyX1oL9Y-Y-3" value="" style="endArrow=none;dashed=1;html=1;rounded=0;" edge="1" parent="1" target="_1OQamMVPVHyX1oL9Y-Y-4">
          <mxGeometry width="50" height="50" relative="1" as="geometry">
            <mxPoint x="360" y="140" as="sourcePoint" />
            <mxPoint x="520" y="140" as="targetPoint" />
          </mxGeometry>
        </mxCell>
        <mxCell id="_1OQamMVPVHyX1oL9Y-Y-4" value="" style="shape=curlyBracket;whiteSpace=wrap;html=1;rounded=1;labelPosition=left;verticalLabelPosition=middle;align=right;verticalAlign=middle;" vertex="1" parent="1">
          <mxGeometry x="500" y="80" width="110" height="120" as="geometry" />
        </mxCell>
        <mxCell id="_1OQamMVPVHyX1oL9Y-Y-5" value="&lt;div align=&quot;left&quot;&gt;#include &amp;lt;iostream&amp;gt;&lt;br&gt;using namespace std;&lt;br&gt;int main()&lt;br&gt;&lt;/div&gt;&lt;div align=&quot;left&quot;&gt;{&lt;/div&gt;" style="text;html=1;align=left;verticalAlign=middle;whiteSpace=wrap;rounded=0;" vertex="1" parent="1">
          <mxGeometry x="570" y="90" width="150" height="100" as="geometry" />
        </mxCell>
        <mxCell id="_1OQamMVPVHyX1oL9Y-Y-8" value="" style="edgeStyle=none;curved=1;rounded=0;orthogonalLoop=1;jettySize=auto;html=1;fontSize=12;startSize=8;endSize=8;" edge="1" parent="1" source="_1OQamMVPVHyX1oL9Y-Y-6" target="_1OQamMVPVHyX1oL9Y-Y-7">
          <mxGeometry relative="1" as="geometry" />
        </mxCell>
        <mxCell id="_1OQamMVPVHyX1oL9Y-Y-6" value="int a, b,res;" style="rounded=0;whiteSpace=wrap;html=1;" vertex="1" parent="1">
          <mxGeometry x="300" y="200" width="120" height="60" as="geometry" />
        </mxCell>
        <mxCell id="_1OQamMVPVHyX1oL9Y-Y-10" value="" style="edgeStyle=none;curved=1;rounded=0;orthogonalLoop=1;jettySize=auto;html=1;fontSize=12;startSize=8;endSize=8;" edge="1" parent="1" source="_1OQamMVPVHyX1oL9Y-Y-7" target="_1OQamMVPVHyX1oL9Y-Y-9">
          <mxGeometry relative="1" as="geometry" />
        </mxCell>
        <mxCell id="_1OQamMVPVHyX1oL9Y-Y-7" value="&lt;div&gt;cout &amp;lt;&amp;lt; &quot;Введите первое&amp;nbsp;&lt;/div&gt;&lt;div&gt;натуральное число: &quot;;&lt;/div&gt;" style="shape=parallelogram;perimeter=parallelogramPerimeter;whiteSpace=wrap;html=1;fixedSize=1;rounded=0;" vertex="1" parent="1">
          <mxGeometry x="250" y="300" width="220" height="60" as="geometry" />
        </mxCell>
        <mxCell id="_1OQamMVPVHyX1oL9Y-Y-11" style="edgeStyle=none;curved=1;rounded=0;orthogonalLoop=1;jettySize=auto;html=1;fontSize=12;startSize=8;endSize=8;" edge="1" parent="1" source="_1OQamMVPVHyX1oL9Y-Y-9">
          <mxGeometry relative="1" as="geometry">
            <mxPoint x="360" y="500" as="targetPoint" />
          </mxGeometry>
        </mxCell>
        <mxCell id="_1OQamMVPVHyX1oL9Y-Y-9" value="cin &gt;&gt; a;" style="shape=parallelogram;perimeter=parallelogramPerimeter;whiteSpace=wrap;html=1;fixedSize=1;rounded=0;" vertex="1" parent="1">
          <mxGeometry x="300" y="400" width="120" height="60" as="geometry" />
        </mxCell>
        <mxCell id="_1OQamMVPVHyX1oL9Y-Y-12" value="" style="edgeStyle=none;curved=1;rounded=0;orthogonalLoop=1;jettySize=auto;html=1;fontSize=12;startSize=8;endSize=8;" edge="1" parent="1" source="_1OQamMVPVHyX1oL9Y-Y-13" target="_1OQamMVPVHyX1oL9Y-Y-14">
          <mxGeometry relative="1" as="geometry" />
        </mxCell>
        <mxCell id="_1OQamMVPVHyX1oL9Y-Y-13" value="&lt;div&gt;cout &amp;lt;&amp;lt; &quot;Введите второе &lt;br&gt;&lt;/div&gt;&lt;div&gt;натуральное число: &quot;;&lt;/div&gt;" style="shape=parallelogram;perimeter=parallelogramPerimeter;whiteSpace=wrap;html=1;fixedSize=1;rounded=0;" vertex="1" parent="1">
          <mxGeometry x="250" y="500" width="220" height="60" as="geometry" />
        </mxCell>
        <mxCell id="_1OQamMVPVHyX1oL9Y-Y-15" style="edgeStyle=none;curved=1;rounded=0;orthogonalLoop=1;jettySize=auto;html=1;fontSize=12;startSize=8;endSize=8;" edge="1" parent="1" source="_1OQamMVPVHyX1oL9Y-Y-14" target="_1OQamMVPVHyX1oL9Y-Y-16">
          <mxGeometry relative="1" as="geometry">
            <mxPoint x="360" y="700" as="targetPoint" />
          </mxGeometry>
        </mxCell>
        <mxCell id="_1OQamMVPVHyX1oL9Y-Y-14" value="cin &amp;gt;&amp;gt; b;" style="shape=parallelogram;perimeter=parallelogramPerimeter;whiteSpace=wrap;html=1;fixedSize=1;rounded=0;" vertex="1" parent="1">
          <mxGeometry x="300" y="600" width="120" height="60" as="geometry" />
        </mxCell>
        <mxCell id="_1OQamMVPVHyX1oL9Y-Y-18" value="" style="edgeStyle=none;curved=1;rounded=0;orthogonalLoop=1;jettySize=auto;html=1;fontSize=12;startSize=8;endSize=8;" edge="1" parent="1" source="_1OQamMVPVHyX1oL9Y-Y-16" target="_1OQamMVPVHyX1oL9Y-Y-17">
          <mxGeometry relative="1" as="geometry" />
        </mxCell>
        <mxCell id="_1OQamMVPVHyX1oL9Y-Y-16" value="res = 0;" style="rounded=0;whiteSpace=wrap;html=1;" vertex="1" parent="1">
          <mxGeometry x="300" y="700" width="120" height="60" as="geometry" />
        </mxCell>
        <mxCell id="_1OQamMVPVHyX1oL9Y-Y-20" value="" style="edgeStyle=none;curved=0;rounded=0;orthogonalLoop=1;jettySize=auto;html=1;fontSize=12;startSize=8;endSize=8;" edge="1" parent="1" source="_1OQamMVPVHyX1oL9Y-Y-17">
          <mxGeometry relative="1" as="geometry">
            <mxPoint x="560" y="900" as="targetPoint" />
            <Array as="points">
              <mxPoint x="560" y="840" />
            </Array>
          </mxGeometry>
        </mxCell>
        <mxCell id="_1OQamMVPVHyX1oL9Y-Y-23" style="edgeStyle=none;shape=connector;curved=0;rounded=0;orthogonalLoop=1;jettySize=auto;html=1;strokeColor=default;align=center;verticalAlign=middle;fontFamily=Helvetica;fontSize=12;fontColor=default;labelBackgroundColor=default;startSize=8;endArrow=classic;endSize=8;" edge="1" parent="1" source="_1OQamMVPVHyX1oL9Y-Y-17" target="_1OQamMVPVHyX1oL9Y-Y-24">
          <mxGeometry relative="1" as="geometry">
            <mxPoint x="160" y="880" as="targetPoint" />
            <Array as="points">
              <mxPoint x="160" y="840" />
            </Array>
          </mxGeometry>
        </mxCell>
        <mxCell id="_1OQamMVPVHyX1oL9Y-Y-17" value="if ((a &gt; 0) &amp;&amp; (b &gt; 0))" style="rhombus;whiteSpace=wrap;html=1;rounded=0;" vertex="1" parent="1">
          <mxGeometry x="285" y="800" width="150" height="80" as="geometry" />
        </mxCell>
        <mxCell id="_1OQamMVPVHyX1oL9Y-Y-22" style="edgeStyle=none;shape=connector;curved=0;rounded=0;orthogonalLoop=1;jettySize=auto;html=1;entryX=0.5;entryY=0;entryDx=0;entryDy=0;strokeColor=default;align=center;verticalAlign=middle;fontFamily=Helvetica;fontSize=12;fontColor=default;labelBackgroundColor=default;startSize=8;endArrow=classic;endSize=8;" edge="1" parent="1" target="_1OQamMVPVHyX1oL9Y-Y-21">
          <mxGeometry relative="1" as="geometry">
            <mxPoint x="560" y="960" as="sourcePoint" />
          </mxGeometry>
        </mxCell>
        <mxCell id="_1OQamMVPVHyX1oL9Y-Y-26" style="edgeStyle=none;shape=connector;curved=0;rounded=0;orthogonalLoop=1;jettySize=auto;html=1;strokeColor=default;align=center;verticalAlign=middle;fontFamily=Helvetica;fontSize=12;fontColor=default;labelBackgroundColor=default;startSize=8;endArrow=classic;endSize=8;" edge="1" parent="1" source="_1OQamMVPVHyX1oL9Y-Y-21">
          <mxGeometry relative="1" as="geometry">
            <mxPoint x="360" y="1100" as="targetPoint" />
            <Array as="points">
              <mxPoint x="560" y="1100" />
            </Array>
          </mxGeometry>
        </mxCell>
        <mxCell id="_1OQamMVPVHyX1oL9Y-Y-21" value="cout &amp;lt;&amp;lt; &quot;НОК двух натуральных чисел &quot; &amp;lt;&amp;lt; a &amp;lt;&amp;lt; &quot; и &quot; &amp;lt;&amp;lt; b &amp;lt;&amp;lt; &quot; = &quot; &amp;lt;&amp;lt; (a * b) / res &amp;lt;&amp;lt; endl;" style="shape=parallelogram;perimeter=parallelogramPerimeter;whiteSpace=wrap;html=1;fixedSize=1;fontFamily=Helvetica;fontSize=12;fontColor=default;labelBackgroundColor=default;" vertex="1" parent="1">
          <mxGeometry x="420" y="1000" width="280" height="60" as="geometry" />
        </mxCell>
        <mxCell id="_1OQamMVPVHyX1oL9Y-Y-25" style="edgeStyle=none;shape=connector;curved=0;rounded=0;orthogonalLoop=1;jettySize=auto;html=1;strokeColor=default;align=center;verticalAlign=middle;fontFamily=Helvetica;fontSize=12;fontColor=default;labelBackgroundColor=default;startSize=8;endArrow=classic;endSize=8;" edge="1" parent="1" source="_1OQamMVPVHyX1oL9Y-Y-24">
          <mxGeometry relative="1" as="geometry">
            <mxPoint x="360" y="1100" as="targetPoint" />
            <Array as="points">
              <mxPoint x="160" y="1100" />
            </Array>
          </mxGeometry>
        </mxCell>
        <mxCell id="_1OQamMVPVHyX1oL9Y-Y-24" value="cout &amp;lt;&amp;lt; &quot;Необходимо ввести целые числа, большие нуля!&quot; &amp;lt;&amp;lt; endl;" style="shape=parallelogram;perimeter=parallelogramPerimeter;whiteSpace=wrap;html=1;fixedSize=1;fontFamily=Helvetica;fontSize=12;fontColor=default;labelBackgroundColor=default;" vertex="1" parent="1">
          <mxGeometry x="30" y="900" width="260" height="60" as="geometry" />
        </mxCell>
        <mxCell id="_1OQamMVPVHyX1oL9Y-Y-27" value="1" style="text;html=1;align=center;verticalAlign=middle;resizable=0;points=[];autosize=1;strokeColor=none;fillColor=none;fontSize=12;fontFamily=Helvetica;fontColor=default;labelBackgroundColor=default;" vertex="1" parent="1">
          <mxGeometry x="429" y="811" width="30" height="30" as="geometry" />
        </mxCell>
        <mxCell id="_1OQamMVPVHyX1oL9Y-Y-28" value="0" style="text;html=1;align=center;verticalAlign=middle;resizable=0;points=[];autosize=1;strokeColor=none;fillColor=none;fontSize=12;fontFamily=Helvetica;fontColor=default;labelBackgroundColor=default;" vertex="1" parent="1">
          <mxGeometry x="259" y="811" width="30" height="30" as="geometry" />
        </mxCell>
        <mxCell id="_1OQamMVPVHyX1oL9Y-Y-30" value="&#xa;res = nod(a, b);&#xa;&#xa;" style="shape=process;whiteSpace=wrap;html=1;backgroundOutline=1;fontFamily=Helvetica;fontSize=12;fontColor=default;labelBackgroundColor=default;" vertex="1" parent="1">
          <mxGeometry x="500" y="900" width="120" height="60" as="geometry" />
        </mxCell>
        <mxCell id="_1OQamMVPVHyX1oL9Y-Y-31" style="edgeStyle=orthogonalEdgeStyle;rounded=0;orthogonalLoop=1;jettySize=auto;html=1;" edge="1" parent="1">
          <mxGeometry relative="1" as="geometry">
            <mxPoint x="360" y="1250" as="targetPoint" />
            <mxPoint x="360" y="1150" as="sourcePoint" />
          </mxGeometry>
        </mxCell>
        <mxCell id="_1OQamMVPVHyX1oL9Y-Y-32" style="edgeStyle=orthogonalEdgeStyle;rounded=0;orthogonalLoop=1;jettySize=auto;html=1;entryX=0.5;entryY=0;entryDx=0;entryDy=0;" edge="1" parent="1">
          <mxGeometry relative="1" as="geometry">
            <mxPoint x="360.0000000000001" y="1250" as="targetPoint" />
            <mxPoint x="360" y="1100" as="sourcePoint" />
          </mxGeometry>
        </mxCell>
        <mxCell id="_1OQamMVPVHyX1oL9Y-Y-33" value="" style="endArrow=none;dashed=1;html=1;rounded=0;" edge="1" parent="1" target="_1OQamMVPVHyX1oL9Y-Y-34">
          <mxGeometry width="50" height="50" relative="1" as="geometry">
            <mxPoint x="360" y="1190" as="sourcePoint" />
            <mxPoint x="520" y="1190" as="targetPoint" />
          </mxGeometry>
        </mxCell>
        <mxCell id="_1OQamMVPVHyX1oL9Y-Y-34" value="" style="shape=curlyBracket;whiteSpace=wrap;html=1;rounded=1;labelPosition=left;verticalLabelPosition=middle;align=right;verticalAlign=middle;" vertex="1" parent="1">
          <mxGeometry x="500" y="1130" width="110" height="120" as="geometry" />
        </mxCell>
        <mxCell id="_1OQamMVPVHyX1oL9Y-Y-35" value="КОНЕЦ" style="ellipse;whiteSpace=wrap;html=1;" vertex="1" parent="1">
          <mxGeometry x="300" y="1250" width="120" height="80" as="geometry" />
        </mxCell>
        <mxCell id="_1OQamMVPVHyX1oL9Y-Y-36" value="return 0;&lt;br&gt;}" style="text;html=1;align=left;verticalAlign=middle;whiteSpace=wrap;rounded=0;" vertex="1" parent="1">
          <mxGeometry x="560" y="1140" width="150" height="100" as="geometry" />
        </mxCell>
        <mxCell id="_1OQamMVPVHyX1oL9Y-Y-38" style="edgeStyle=orthogonalEdgeStyle;rounded=0;orthogonalLoop=1;jettySize=auto;html=1;entryX=0.5;entryY=0;entryDx=0;entryDy=0;" edge="1" parent="1">
          <mxGeometry relative="1" as="geometry">
            <mxPoint x="-379.9999999999999" y="200" as="targetPoint" />
            <mxPoint x="-379.9999999999999" y="100" as="sourcePoint" />
          </mxGeometry>
        </mxCell>
        <mxCell id="_1OQamMVPVHyX1oL9Y-Y-39" value="НАЧАЛО" style="ellipse;whiteSpace=wrap;html=1;" vertex="1" parent="1">
          <mxGeometry x="-440" y="20" width="120" height="80" as="geometry" />
        </mxCell>
        <mxCell id="_1OQamMVPVHyX1oL9Y-Y-40" value="" style="endArrow=none;dashed=1;html=1;rounded=0;" edge="1" parent="1" target="_1OQamMVPVHyX1oL9Y-Y-41">
          <mxGeometry width="50" height="50" relative="1" as="geometry">
            <mxPoint x="-380" y="140" as="sourcePoint" />
            <mxPoint x="-220" y="140" as="targetPoint" />
          </mxGeometry>
        </mxCell>
        <mxCell id="_1OQamMVPVHyX1oL9Y-Y-41" value="" style="shape=curlyBracket;whiteSpace=wrap;html=1;rounded=1;labelPosition=left;verticalLabelPosition=middle;align=right;verticalAlign=middle;" vertex="1" parent="1">
          <mxGeometry x="-240" y="80" width="110" height="120" as="geometry" />
        </mxCell>
        <mxCell id="_1OQamMVPVHyX1oL9Y-Y-42" value="&lt;div align=&quot;left&quot;&gt;int nod(int a, int b)&lt;br&gt;&lt;/div&gt;&lt;div align=&quot;left&quot;&gt;{&lt;/div&gt;" style="text;html=1;align=left;verticalAlign=middle;whiteSpace=wrap;rounded=0;" vertex="1" parent="1">
          <mxGeometry x="-170" y="90" width="150" height="100" as="geometry" />
        </mxCell>
        <mxCell id="_1OQamMVPVHyX1oL9Y-Y-45" style="edgeStyle=none;shape=connector;curved=0;rounded=0;orthogonalLoop=1;jettySize=auto;html=1;entryX=0.5;entryY=0;entryDx=0;entryDy=0;strokeColor=default;align=center;verticalAlign=middle;fontFamily=Helvetica;fontSize=12;fontColor=default;labelBackgroundColor=default;startSize=8;endArrow=classic;endSize=8;" edge="1" parent="1" source="_1OQamMVPVHyX1oL9Y-Y-43" target="_1OQamMVPVHyX1oL9Y-Y-44">
          <mxGeometry relative="1" as="geometry" />
        </mxCell>
        <mxCell id="_1OQamMVPVHyX1oL9Y-Y-43" value="int max, min;" style="rounded=0;whiteSpace=wrap;html=1;fontFamily=Helvetica;fontSize=12;fontColor=default;labelBackgroundColor=default;" vertex="1" parent="1">
          <mxGeometry x="-440" y="200" width="120" height="60" as="geometry" />
        </mxCell>
        <mxCell id="_1OQamMVPVHyX1oL9Y-Y-46" style="edgeStyle=none;shape=connector;curved=0;rounded=0;orthogonalLoop=1;jettySize=auto;html=1;strokeColor=default;align=center;verticalAlign=middle;fontFamily=Helvetica;fontSize=12;fontColor=default;labelBackgroundColor=default;startSize=8;endArrow=classic;endSize=8;" edge="1" parent="1" source="_1OQamMVPVHyX1oL9Y-Y-44" target="_1OQamMVPVHyX1oL9Y-Y-47">
          <mxGeometry relative="1" as="geometry">
            <mxPoint x="-240" y="400" as="targetPoint" />
            <Array as="points">
              <mxPoint x="-240" y="340" />
            </Array>
          </mxGeometry>
        </mxCell>
        <mxCell id="_1OQamMVPVHyX1oL9Y-Y-48" style="edgeStyle=none;shape=connector;curved=0;rounded=0;orthogonalLoop=1;jettySize=auto;html=1;strokeColor=default;align=center;verticalAlign=middle;fontFamily=Helvetica;fontSize=12;fontColor=default;labelBackgroundColor=default;startSize=8;endArrow=classic;endSize=8;" edge="1" parent="1" source="_1OQamMVPVHyX1oL9Y-Y-44" target="_1OQamMVPVHyX1oL9Y-Y-49">
          <mxGeometry relative="1" as="geometry">
            <mxPoint x="-520" y="380" as="targetPoint" />
            <Array as="points">
              <mxPoint x="-520" y="340" />
            </Array>
          </mxGeometry>
        </mxCell>
        <mxCell id="_1OQamMVPVHyX1oL9Y-Y-44" value="if (a == b) " style="rhombus;whiteSpace=wrap;html=1;fontFamily=Helvetica;fontSize=12;fontColor=default;labelBackgroundColor=default;" vertex="1" parent="1">
          <mxGeometry x="-417.5" y="300" width="75" height="80" as="geometry" />
        </mxCell>
        <mxCell id="_1OQamMVPVHyX1oL9Y-Y-47" value="&lt;br&gt;return a; &lt;div&gt;&lt;br/&gt;&lt;/div&gt;" style="rounded=0;whiteSpace=wrap;html=1;fontFamily=Helvetica;fontSize=12;fontColor=default;labelBackgroundColor=default;" vertex="1" parent="1">
          <mxGeometry x="-300" y="380" width="120" height="60" as="geometry" />
        </mxCell>
        <mxCell id="_1OQamMVPVHyX1oL9Y-Y-50" style="edgeStyle=none;shape=connector;curved=0;rounded=0;orthogonalLoop=1;jettySize=auto;html=1;strokeColor=default;align=center;verticalAlign=middle;fontFamily=Helvetica;fontSize=12;fontColor=default;labelBackgroundColor=default;startSize=8;endArrow=classic;endSize=8;entryX=0.5;entryY=0;entryDx=0;entryDy=0;" edge="1" parent="1" source="_1OQamMVPVHyX1oL9Y-Y-49" target="_1OQamMVPVHyX1oL9Y-Y-51">
          <mxGeometry relative="1" as="geometry">
            <mxPoint x="-380" y="480" as="targetPoint" />
            <Array as="points">
              <mxPoint x="-380" y="420" />
            </Array>
          </mxGeometry>
        </mxCell>
        <mxCell id="_1OQamMVPVHyX1oL9Y-Y-54" style="edgeStyle=none;shape=connector;curved=0;rounded=0;orthogonalLoop=1;jettySize=auto;html=1;strokeColor=default;align=center;verticalAlign=middle;fontFamily=Helvetica;fontSize=12;fontColor=default;labelBackgroundColor=default;startSize=8;endArrow=classic;endSize=8;" edge="1" parent="1" source="_1OQamMVPVHyX1oL9Y-Y-49">
          <mxGeometry relative="1" as="geometry">
            <mxPoint x="-680" y="460" as="targetPoint" />
            <Array as="points">
              <mxPoint x="-680" y="420" />
            </Array>
          </mxGeometry>
        </mxCell>
        <mxCell id="_1OQamMVPVHyX1oL9Y-Y-49" value="if (a &amp;gt; b)" style="rhombus;whiteSpace=wrap;html=1;fontFamily=Helvetica;fontSize=12;fontColor=default;labelBackgroundColor=default;" vertex="1" parent="1">
          <mxGeometry x="-560" y="380" width="80" height="80" as="geometry" />
        </mxCell>
        <mxCell id="_1OQamMVPVHyX1oL9Y-Y-53" style="edgeStyle=none;shape=connector;curved=0;rounded=0;orthogonalLoop=1;jettySize=auto;html=1;entryX=0.5;entryY=0;entryDx=0;entryDy=0;strokeColor=default;align=center;verticalAlign=middle;fontFamily=Helvetica;fontSize=12;fontColor=default;labelBackgroundColor=default;startSize=8;endArrow=classic;endSize=8;" edge="1" parent="1" source="_1OQamMVPVHyX1oL9Y-Y-51" target="_1OQamMVPVHyX1oL9Y-Y-52">
          <mxGeometry relative="1" as="geometry" />
        </mxCell>
        <mxCell id="_1OQamMVPVHyX1oL9Y-Y-51" value="max = a-b;" style="rounded=0;whiteSpace=wrap;html=1;fontFamily=Helvetica;fontSize=12;fontColor=default;labelBackgroundColor=default;" vertex="1" parent="1">
          <mxGeometry x="-440" y="460" width="120" height="60" as="geometry" />
        </mxCell>
        <mxCell id="_1OQamMVPVHyX1oL9Y-Y-71" style="edgeStyle=none;shape=connector;curved=0;rounded=0;orthogonalLoop=1;jettySize=auto;html=1;entryX=0.5;entryY=0;entryDx=0;entryDy=0;strokeColor=default;align=center;verticalAlign=middle;fontFamily=Helvetica;fontSize=12;fontColor=default;labelBackgroundColor=default;startSize=8;endArrow=classic;endSize=8;" edge="1" parent="1" source="_1OQamMVPVHyX1oL9Y-Y-52" target="_1OQamMVPVHyX1oL9Y-Y-70">
          <mxGeometry relative="1" as="geometry" />
        </mxCell>
        <mxCell id="_1OQamMVPVHyX1oL9Y-Y-52" value="min = b;" style="rounded=0;whiteSpace=wrap;html=1;fontFamily=Helvetica;fontSize=12;fontColor=default;labelBackgroundColor=default;" vertex="1" parent="1">
          <mxGeometry x="-440" y="560" width="120" height="60" as="geometry" />
        </mxCell>
        <mxCell id="_1OQamMVPVHyX1oL9Y-Y-57" style="edgeStyle=none;shape=connector;curved=0;rounded=0;orthogonalLoop=1;jettySize=auto;html=1;strokeColor=default;align=center;verticalAlign=middle;fontFamily=Helvetica;fontSize=12;fontColor=default;labelBackgroundColor=default;startSize=8;endArrow=classic;endSize=8;entryX=0.5;entryY=0;entryDx=0;entryDy=0;" edge="1" parent="1" target="_1OQamMVPVHyX1oL9Y-Y-59">
          <mxGeometry relative="1" as="geometry">
            <mxPoint x="-560" y="560" as="targetPoint" />
            <mxPoint x="-680" y="460" as="sourcePoint" />
            <Array as="points">
              <mxPoint x="-680" y="500" />
            </Array>
          </mxGeometry>
        </mxCell>
        <mxCell id="_1OQamMVPVHyX1oL9Y-Y-61" value="" style="edgeStyle=none;shape=connector;curved=0;rounded=0;orthogonalLoop=1;jettySize=auto;html=1;strokeColor=default;align=center;verticalAlign=middle;fontFamily=Helvetica;fontSize=12;fontColor=default;labelBackgroundColor=default;startSize=8;endArrow=classic;endSize=8;" edge="1" parent="1" source="_1OQamMVPVHyX1oL9Y-Y-59" target="_1OQamMVPVHyX1oL9Y-Y-60">
          <mxGeometry relative="1" as="geometry" />
        </mxCell>
        <mxCell id="_1OQamMVPVHyX1oL9Y-Y-59" value="max = b-a;" style="rounded=0;whiteSpace=wrap;html=1;fontFamily=Helvetica;fontSize=12;fontColor=default;labelBackgroundColor=default;" vertex="1" parent="1">
          <mxGeometry x="-740" y="480" width="120" height="60" as="geometry" />
        </mxCell>
        <mxCell id="_1OQamMVPVHyX1oL9Y-Y-73" style="edgeStyle=none;shape=connector;curved=0;rounded=0;orthogonalLoop=1;jettySize=auto;html=1;entryX=0.5;entryY=0;entryDx=0;entryDy=0;strokeColor=default;align=center;verticalAlign=middle;fontFamily=Helvetica;fontSize=12;fontColor=default;labelBackgroundColor=default;startSize=8;endArrow=classic;endSize=8;" edge="1" parent="1" source="_1OQamMVPVHyX1oL9Y-Y-60" target="_1OQamMVPVHyX1oL9Y-Y-72">
          <mxGeometry relative="1" as="geometry" />
        </mxCell>
        <mxCell id="_1OQamMVPVHyX1oL9Y-Y-60" value="min = a;" style="whiteSpace=wrap;html=1;rounded=0;labelBackgroundColor=default;" vertex="1" parent="1">
          <mxGeometry x="-740" y="580" width="120" height="60" as="geometry" />
        </mxCell>
        <mxCell id="_1OQamMVPVHyX1oL9Y-Y-65" value="" style="endArrow=classic;html=1;rounded=0;strokeColor=default;align=center;verticalAlign=middle;fontFamily=Helvetica;fontSize=12;fontColor=default;labelBackgroundColor=default;edgeStyle=none;startSize=8;endSize=8;curved=0;exitX=0.5;exitY=1;exitDx=0;exitDy=0;" edge="1" parent="1" source="_1OQamMVPVHyX1oL9Y-Y-72">
          <mxGeometry width="50" height="50" relative="1" as="geometry">
            <mxPoint x="-680" y="840" as="sourcePoint" />
            <mxPoint x="-520" y="780" as="targetPoint" />
            <Array as="points">
              <mxPoint x="-680" y="780" />
            </Array>
          </mxGeometry>
        </mxCell>
        <mxCell id="_1OQamMVPVHyX1oL9Y-Y-66" value="" style="endArrow=classic;html=1;rounded=0;strokeColor=default;align=center;verticalAlign=middle;fontFamily=Helvetica;fontSize=12;fontColor=default;labelBackgroundColor=default;edgeStyle=none;startSize=8;endSize=8;curved=0;exitX=0.5;exitY=1;exitDx=0;exitDy=0;" edge="1" parent="1" source="_1OQamMVPVHyX1oL9Y-Y-70">
          <mxGeometry width="50" height="50" relative="1" as="geometry">
            <mxPoint x="-380" y="710" as="sourcePoint" />
            <mxPoint x="-520" y="780" as="targetPoint" />
            <Array as="points">
              <mxPoint x="-380" y="780" />
            </Array>
          </mxGeometry>
        </mxCell>
        <mxCell id="_1OQamMVPVHyX1oL9Y-Y-67" value="" style="endArrow=classic;html=1;rounded=0;strokeColor=default;align=center;verticalAlign=middle;fontFamily=Helvetica;fontSize=12;fontColor=default;labelBackgroundColor=default;edgeStyle=none;startSize=8;endSize=8;curved=0;" edge="1" parent="1">
          <mxGeometry width="50" height="50" relative="1" as="geometry">
            <mxPoint x="-520" y="780" as="sourcePoint" />
            <mxPoint x="-380" y="820" as="targetPoint" />
            <Array as="points">
              <mxPoint x="-520" y="820" />
            </Array>
          </mxGeometry>
        </mxCell>
        <mxCell id="_1OQamMVPVHyX1oL9Y-Y-68" value="" style="endArrow=classic;html=1;rounded=0;strokeColor=default;align=center;verticalAlign=middle;fontFamily=Helvetica;fontSize=12;fontColor=default;labelBackgroundColor=default;edgeStyle=none;startSize=8;endSize=8;curved=0;exitX=0.5;exitY=1;exitDx=0;exitDy=0;" edge="1" parent="1" source="_1OQamMVPVHyX1oL9Y-Y-47">
          <mxGeometry width="50" height="50" relative="1" as="geometry">
            <mxPoint x="-420" y="750" as="sourcePoint" />
            <mxPoint x="-380" y="820" as="targetPoint" />
            <Array as="points">
              <mxPoint x="-240" y="820" />
            </Array>
          </mxGeometry>
        </mxCell>
        <mxCell id="_1OQamMVPVHyX1oL9Y-Y-70" value="nod(max, min);" style="shape=process;whiteSpace=wrap;html=1;backgroundOutline=1;fontFamily=Helvetica;fontSize=12;fontColor=default;labelBackgroundColor=default;" vertex="1" parent="1">
          <mxGeometry x="-440" y="660" width="120" height="60" as="geometry" />
        </mxCell>
        <mxCell id="_1OQamMVPVHyX1oL9Y-Y-72" value="nod(max, min);" style="shape=process;whiteSpace=wrap;html=1;backgroundOutline=1;fontFamily=Helvetica;fontSize=12;fontColor=default;labelBackgroundColor=default;" vertex="1" parent="1">
          <mxGeometry x="-740" y="680" width="120" height="60" as="geometry" />
        </mxCell>
        <mxCell id="_1OQamMVPVHyX1oL9Y-Y-75" style="edgeStyle=orthogonalEdgeStyle;rounded=0;orthogonalLoop=1;jettySize=auto;html=1;" edge="1" parent="1">
          <mxGeometry relative="1" as="geometry">
            <mxPoint x="-380" y="920" as="targetPoint" />
            <mxPoint x="-380" y="820" as="sourcePoint" />
          </mxGeometry>
        </mxCell>
        <mxCell id="_1OQamMVPVHyX1oL9Y-Y-76" style="edgeStyle=orthogonalEdgeStyle;rounded=0;orthogonalLoop=1;jettySize=auto;html=1;entryX=0.5;entryY=0;entryDx=0;entryDy=0;" edge="1" parent="1">
          <mxGeometry relative="1" as="geometry">
            <mxPoint x="-379.9999999999999" y="920" as="targetPoint" />
            <mxPoint x="-379.9999999999999" y="820" as="sourcePoint" />
          </mxGeometry>
        </mxCell>
        <mxCell id="_1OQamMVPVHyX1oL9Y-Y-77" value="" style="endArrow=none;dashed=1;html=1;rounded=0;" edge="1" parent="1" target="_1OQamMVPVHyX1oL9Y-Y-78">
          <mxGeometry width="50" height="50" relative="1" as="geometry">
            <mxPoint x="-380" y="860" as="sourcePoint" />
            <mxPoint x="-220" y="860" as="targetPoint" />
          </mxGeometry>
        </mxCell>
        <mxCell id="_1OQamMVPVHyX1oL9Y-Y-78" value="" style="shape=curlyBracket;whiteSpace=wrap;html=1;rounded=1;labelPosition=left;verticalLabelPosition=middle;align=right;verticalAlign=middle;" vertex="1" parent="1">
          <mxGeometry x="-240" y="800" width="110" height="120" as="geometry" />
        </mxCell>
        <mxCell id="_1OQamMVPVHyX1oL9Y-Y-79" value="КОНЕЦ" style="ellipse;whiteSpace=wrap;html=1;" vertex="1" parent="1">
          <mxGeometry x="-440" y="920" width="120" height="80" as="geometry" />
        </mxCell>
        <mxCell id="_1OQamMVPVHyX1oL9Y-Y-80" value="&lt;br&gt;}" style="text;html=1;align=left;verticalAlign=middle;whiteSpace=wrap;rounded=0;" vertex="1" parent="1">
          <mxGeometry x="-180" y="810" width="150" height="100" as="geometry" />
        </mxCell>
        <mxCell id="_1OQamMVPVHyX1oL9Y-Y-81" value="1" style="text;html=1;align=center;verticalAlign=middle;resizable=0;points=[];autosize=1;strokeColor=none;fillColor=none;fontSize=12;fontFamily=Helvetica;fontColor=default;labelBackgroundColor=default;" vertex="1" parent="1">
          <mxGeometry x="-341" y="311" width="30" height="30" as="geometry" />
        </mxCell>
        <mxCell id="_1OQamMVPVHyX1oL9Y-Y-82" value="0" style="text;html=1;align=center;verticalAlign=middle;resizable=0;points=[];autosize=1;strokeColor=none;fillColor=none;fontSize=12;fontFamily=Helvetica;fontColor=default;labelBackgroundColor=default;" vertex="1" parent="1">
          <mxGeometry x="-451" y="311" width="30" height="30" as="geometry" />
        </mxCell>
        <mxCell id="_1OQamMVPVHyX1oL9Y-Y-83" value="1" style="text;html=1;align=center;verticalAlign=middle;resizable=0;points=[];autosize=1;strokeColor=none;fillColor=none;fontSize=12;fontFamily=Helvetica;fontColor=default;labelBackgroundColor=default;" vertex="1" parent="1">
          <mxGeometry x="-491" y="391" width="30" height="30" as="geometry" />
        </mxCell>
        <mxCell id="_1OQamMVPVHyX1oL9Y-Y-84" value="0" style="text;html=1;align=center;verticalAlign=middle;resizable=0;points=[];autosize=1;strokeColor=none;fillColor=none;fontSize=12;fontFamily=Helvetica;fontColor=default;labelBackgroundColor=default;" vertex="1" parent="1">
          <mxGeometry x="-590" y="391" width="30" height="30" as="geometry" />
        </mxCell>
      </root>
    </mxGraphModel>
  </diagram>
</mxfile>
